<?xml version="1.0" standalone="no"?>
<!DOCTYPE svg PUBLIC "-//W3C//DTD SVG 1.1//EN" "http://www.w3.org/Graphics/SVG/1.1/DTD/svg11.dtd" >
<svg xmlns="http://www.w3.org/2000/svg" xmlns:xlink="http://www.w3.org/1999/xlink" version="1.1">
<metadata>
Created by FontForge 20161003 at Thu Dec  8 12:08:02 2016
 By www-data
(c) 2011 Klim Type Foundry. All rights reserved.
</metadata>
<defs>
<font id="Metric-Light" horiz-adv-x="500" >
  <font-face 
    font-family="Metric"
    font-weight="300"
    font-stretch="normal"
    units-per-em="1000"
    panose-1="2 11 3 3 3 2 2 6 2 3"
    ascent="650"
    descent="-350"
    x-height="444"
    cap-height="614"
    bbox="-120 -183 870 893"
    underline-thickness="30"
    underline-position="-70"
    stemh="48"
    stemv="50"
    unicode-range="U+0020-FB02"
  />
<missing-glyph horiz-adv-x="608" 
 />
    <glyph glyph-name="f_f" unicode="ff" horiz-adv-x="494" 
d="M505 650v-46c-14 7 -29 11 -46 11c-47 0 -81 -34 -81 -96v-75h105v-43h-105v-401h-48v401h-187v-401h-49v401h-72v43h72v74c0 81 53 135 125 135c19 0 35 -3 50 -9v-46c-13 7 -28 11 -45 11c-47 0 -81 -34 -81 -96v-69h187v80c0 81 53 135 125 135c18 0 35 -3 50 -9z" />
    <glyph glyph-name=".notdef" horiz-adv-x="608" 
 />
    <glyph glyph-name="space" unicode=" " horiz-adv-x="221" 
 />
    <glyph glyph-name="exclam" unicode="!" horiz-adv-x="206" 
d="M65 35c0 22 17 39 38 39c20 0 37 -17 37 -39c0 -21 -17 -38 -37 -38c-21 0 -38 17 -38 38zM85 192l-10 422h56l-10 -422h-36z" />
    <glyph glyph-name="quotedbl" unicode="&#x22;" horiz-adv-x="221" 
d="M40 418v196h45v-196h-45zM136 418v196h45v-196h-45z" />
    <glyph glyph-name="numbersign" unicode="#" horiz-adv-x="549" 
d="M481 231l-7 -40h-105l-45 -191h-45l45 191h-156l-46 -191h-43l45 191h-97l9 40h98l36 152h-103l8 40h104l46 191h44l-46 -191h157l46 191h44l-46 -191h98l-9 -40h-98l-36 -152h102zM214 383l-37 -152h157l36 152h-156z" />
    <glyph glyph-name="dollar" unicode="$" horiz-adv-x="445" 
d="M198 -85v98c-64 5 -120 26 -154 56v57c54 -49 115 -67 178 -67c81 0 133 39 133 105c0 57 -32 80 -102 111l-84 35c-60 24 -125 59 -125 147c0 89 70 136 154 143v90h45v-90c51 -4 99 -21 135 -47v-55c-43 37 -94 57 -159 57c-71 0 -126 -31 -126 -98
c0 -56 39 -79 98 -104l90 -37c84 -36 122 -78 122 -152c0 -86 -67 -143 -160 -150v-99h-45z" />
    <glyph glyph-name="percent" unicode="%" horiz-adv-x="621" 
d="M78 495c0 -47 38 -85 86 -85s86 38 86 85c0 48 -38 87 -86 87s-86 -39 -86 -87zM90 0l398 614h43l-398 -614h-43zM583 119c0 -71 -56 -128 -126 -128s-127 57 -127 128c0 70 57 126 127 126s126 -56 126 -126zM291 495c0 -70 -57 -126 -127 -126c-71 0 -127 56 -127 126
c0 71 56 128 127 128c70 0 127 -57 127 -128zM542 119c0 47 -38 85 -85 85c-48 0 -86 -38 -86 -85c0 -48 38 -87 86 -87c47 0 85 39 85 87z" />
    <glyph glyph-name="ampersand" unicode="&#x26;" horiz-adv-x="569" 
d="M263 579c-63 0 -111 -38 -111 -107c0 -51 34 -85 74 -128l189 -201c26 44 40 100 42 160h47c-2 -70 -22 -138 -58 -193l104 -110h-64l-69 73c-46 -50 -109 -82 -186 -82c-112 0 -193 80 -193 187c0 77 50 143 119 171c-32 38 -53 73 -53 123c0 92 69 151 159 151
c48 0 95 -14 131 -40v-54c-37 29 -76 50 -131 50zM231 35c66 0 119 26 157 69l-201 213c-58 -19 -101 -75 -101 -139c0 -82 61 -143 145 -143z" />
    <glyph glyph-name="quoteright" unicode="&#x2019;" horiz-adv-x="141" 
d="M20 452l52 97c-17 3 -31 15 -31 36s16 38 37 38c22 0 38 -16 38 -40c0 -16 -6 -30 -14 -44l-47 -87h-35z" />
    <glyph glyph-name="parenleft" unicode="(" horiz-adv-x="325" 
d="M30 283c0 183 104 324 268 367v-50c-118 -29 -219 -146 -219 -317s101 -288 219 -317v-50c-164 43 -268 184 -268 367z" />
    <glyph glyph-name="parenright" unicode=")" horiz-adv-x="325" 
d="M295 283c0 -183 -104 -324 -268 -367v50c118 29 219 146 219 317s-101 288 -219 317v50c164 -43 268 -184 268 -367z" />
    <glyph glyph-name="asterisk" unicode="*" horiz-adv-x="315" 
d="M125 513l-94 54l17 28l93 -54v108h33v-108l93 54l16 -28l-94 -54l94 -54l-16 -28l-93 54v-107h-33v107l-93 -54l-17 28z" />
    <glyph glyph-name="plus" unicode="+" horiz-adv-x="514" 
d="M235 480h43v-164h165v-43h-165v-164h-43v164h-164v43h164v164z" />
    <glyph glyph-name="comma" unicode="," horiz-adv-x="141" 
d="M9 -101l54 100c-16 3 -30 15 -30 36c0 22 16 38 37 38c22 0 38 -16 38 -40c0 -16 -7 -30 -15 -44l-48 -90h-36z" />
    <glyph glyph-name="hyphen" unicode="-" horiz-adv-x="321" 
d="M40 237v46h241v-46h-241z" />
    <glyph glyph-name="period" unicode="." horiz-adv-x="141" 
d="M33 35c0 22 17 39 37 39c21 0 38 -17 38 -39c0 -21 -17 -38 -38 -38c-20 0 -37 17 -37 38z" />
    <glyph glyph-name="slash" unicode="/" horiz-adv-x="306" 
d="M5 -84l248 734h48l-248 -734h-48z" />
    <glyph glyph-name="zero" unicode="0" horiz-adv-x="536" 
d="M268 -9c-136 0 -226 129 -226 316s90 316 226 316c135 0 225 -129 225 -316s-90 -316 -225 -316zM268 576c-109 0 -175 -111 -175 -269s66 -269 175 -269s175 111 175 269s-66 269 -175 269z" />
    <glyph glyph-name="one" unicode="1" horiz-adv-x="330" 
d="M242 615v-615h-50v554l-161 -83v53l180 91h31z" />
    <glyph glyph-name="two" unicode="2" horiz-adv-x="439" 
d="M113 47h292v-47h-385v4l198 233c66 78 120 135 120 218c0 72 -44 121 -130 121c-70 0 -131 -40 -174 -85v55c41 43 104 77 177 77c112 0 177 -66 177 -167c0 -93 -60 -161 -133 -245z" />
    <glyph glyph-name="three" unicode="3" horiz-adv-x="436" 
d="M32 567v47h362v-4l-178 -241c100 -7 182 -76 182 -186c0 -116 -92 -192 -204 -192c-75 0 -125 21 -164 51v59c44 -44 101 -64 162 -64c89 0 158 57 158 146c0 102 -90 159 -207 149v4l168 231h-279z" />
    <glyph glyph-name="four" unicode="4" 
d="M286 614l-193 -418h219v152h49v-152h113v-46h-113v-150h-49v150h-290v4l213 460h51z" />
    <glyph glyph-name="five" unicode="5" horiz-adv-x="440" 
d="M194 377c116 0 209 -74 209 -192c0 -119 -93 -194 -210 -194c-72 0 -122 20 -161 50v60c44 -44 99 -64 159 -64c90 0 163 58 163 148c0 89 -73 147 -163 147c-61 0 -92 -14 -129 -30v312h308v-47h-264v-205c21 8 52 15 88 15z" />
    <glyph glyph-name="six" unicode="6" horiz-adv-x="479" 
d="M239 -9c-114 0 -203 90 -203 207c0 44 11 85 45 146l154 270h53l-138 -240c22 17 57 29 91 29c115 0 202 -89 202 -205c0 -117 -89 -207 -204 -207zM396 198c0 90 -69 161 -157 161c-87 0 -156 -71 -156 -161c0 -91 69 -161 156 -161c88 0 157 70 157 161z" />
    <glyph glyph-name="seven" unicode="7" horiz-adv-x="438" 
d="M421 610l-278 -610h-52l261 567h-334v47h403v-4z" />
    <glyph glyph-name="eight" unicode="8" horiz-adv-x="481" 
d="M240 35c92 0 158 59 158 135s-66 135 -158 135s-157 -59 -157 -135s65 -135 157 -135zM240 349c79 0 133 51 133 115c0 65 -54 115 -133 115c-78 0 -132 -50 -132 -115c0 -64 54 -115 132 -115zM240 -9c-119 0 -206 75 -206 177c0 77 52 139 127 159
c-62 22 -102 75 -102 138c0 90 76 158 181 158c106 0 182 -68 182 -158c0 -63 -41 -116 -102 -138c75 -20 127 -82 127 -159c0 -102 -87 -177 -207 -177z" />
    <glyph glyph-name="nine" unicode="9" horiz-adv-x="479" 
d="M240 623c114 0 203 -90 203 -207c0 -44 -11 -85 -45 -146l-154 -270h-53l138 240c-22 -17 -57 -29 -91 -29c-115 0 -202 89 -202 205c0 117 89 207 204 207zM83 416c0 -90 69 -161 157 -161c87 0 156 71 156 161c0 91 -69 161 -156 161c-88 0 -157 -70 -157 -161z" />
    <glyph glyph-name="colon" unicode=":" horiz-adv-x="141" 
d="M33 35c0 22 17 39 37 39c21 0 38 -17 38 -39c0 -21 -17 -38 -38 -38c-20 0 -37 17 -37 38zM33 364c0 22 17 39 37 39c21 0 38 -17 38 -39c0 -21 -17 -38 -38 -38c-20 0 -37 17 -37 38z" />
    <glyph glyph-name="semicolon" unicode=";" horiz-adv-x="141" 
d="M9 -101l54 100c-16 3 -30 15 -30 36c0 22 16 38 37 38c22 0 38 -16 38 -40c0 -16 -7 -30 -15 -44l-48 -90h-36zM33 364c0 22 17 39 37 39c21 0 38 -17 38 -39c0 -21 -17 -38 -38 -38c-20 0 -37 17 -37 38z" />
    <glyph glyph-name="less" unicode="&#x3c;" horiz-adv-x="397" 
d="M58 269v47l274 150v-48l-232 -125l232 -125v-49z" />
    <glyph glyph-name="equal" unicode="=" horiz-adv-x="521" 
d="M75 210v42h372v-42h-372zM75 338v42h372v-42h-372z" />
    <glyph glyph-name="greater" unicode="&#x3e;" horiz-adv-x="397" 
d="M340 316v-47l-275 -150v49l232 125l-232 125v48z" />
    <glyph glyph-name="question" unicode="?" horiz-adv-x="414" 
d="M235 304c37 42 92 88 92 153c0 72 -45 118 -129 118c-71 0 -132 -43 -175 -91v56c38 44 104 83 177 83c112 0 177 -65 177 -166c0 -73 -56 -127 -104 -179c-32 -35 -42 -57 -43 -85h-48c3 46 19 72 53 111zM167 35c0 22 17 39 37 39c21 0 38 -17 38 -39
c0 -21 -17 -38 -38 -38c-20 0 -37 17 -37 38z" />
    <glyph glyph-name="at" unicode="@" horiz-adv-x="774" 
d="M548 380l-45 -255c-8 -47 14 -60 48 -60c80 0 144 72 144 203c0 148 -117 253 -285 253c-198 0 -330 -148 -330 -335c0 -215 167 -301 331 -301c86 0 160 21 210 45v-41c-50 -22 -125 -43 -210 -43c-191 0 -374 102 -374 340c0 207 150 376 373 376
c195 0 327 -127 327 -294c0 -162 -93 -242 -191 -242c-46 0 -83 23 -90 62c-23 -31 -65 -59 -109 -59c-85 0 -130 64 -130 146c0 108 72 213 181 213c49 0 83 -29 97 -57l9 49h44zM461 140l24 139c-14 38 -44 67 -85 67c-84 0 -137 -88 -137 -170c0 -65 35 -106 90 -106
c46 0 81 31 108 70z" />
    <glyph glyph-name="A" unicode="A" horiz-adv-x="579" 
d="M266 614h47l243 -614h-51l-80 202h-272l-79 -202h-51zM289 548l-118 -300h236z" />
    <glyph glyph-name="B" unicode="B" horiz-adv-x="523" 
d="M362 318c76 -13 124 -75 124 -149c0 -108 -75 -169 -200 -169h-207v614h188c126 0 196 -57 196 -159c0 -81 -48 -121 -101 -137zM129 338h138c94 0 146 38 146 115s-52 115 -146 115h-138v-230zM129 294v-248h160c96 0 146 49 146 124s-50 124 -146 124h-160z" />
    <glyph glyph-name="C" unicode="C" horiz-adv-x="535" 
d="M39 307c0 195 123 316 278 316c74 0 127 -20 168 -53v-56c-51 44 -103 61 -167 61c-131 0 -227 -102 -227 -268s96 -268 227 -268c64 0 116 18 167 62v-57c-41 -33 -94 -53 -168 -53c-155 0 -278 121 -278 316z" />
    <glyph glyph-name="D" unicode="D" horiz-adv-x="602" 
d="M130 47h136c151 0 246 103 246 260s-95 260 -246 260h-136v-520zM79 0v614h187c178 0 298 -120 298 -307s-120 -307 -298 -307h-187z" />
    <glyph glyph-name="E" unicode="E" horiz-adv-x="515" 
d="M79 614h381v-47h-331v-227h300v-47h-300v-246h331v-47h-381v614z" />
    <glyph glyph-name="F" unicode="F" horiz-adv-x="473" 
d="M130 0h-51v614h356v-47h-305v-234h289v-46h-289v-287z" />
    <glyph glyph-name="G" unicode="G" horiz-adv-x="587" 
d="M319 38c67 0 116 15 163 55v175h-155v43h202v-234c-57 -67 -137 -86 -211 -86c-160 0 -279 122 -279 316c0 195 123 316 285 316c72 0 136 -23 180 -59v-57c-52 48 -115 68 -180 68c-137 0 -233 -102 -233 -268s94 -269 228 -269z" />
    <glyph glyph-name="H" unicode="H" horiz-adv-x="649" 
d="M519 614h51v-614h-51v293h-389v-293h-51v614h51v-274h389v274z" />
    <glyph glyph-name="I" unicode="I" horiz-adv-x="209" 
d="M130 614v-614h-51v614h51z" />
    <glyph glyph-name="J" unicode="J" horiz-adv-x="377" 
d="M27 29v54c39 -30 73 -44 116 -44c79 0 116 46 116 158v417h51v-419c0 -141 -60 -204 -167 -204c-50 0 -91 19 -116 38z" />
    <glyph glyph-name="K" unicode="K" horiz-adv-x="534" 
d="M130 614v-280l310 280h67l-328 -295l336 -319h-67l-318 298v-298h-51v614h51z" />
    <glyph glyph-name="L" unicode="L" horiz-adv-x="503" 
d="M79 0v614h51v-567h333v-47h-384z" />
    <glyph glyph-name="M" unicode="M" horiz-adv-x="724" 
d="M364 141h-3l-232 376v-517h-50v614h45l239 -390l240 390h42v-614h-50v517z" />
    <glyph glyph-name="N" unicode="N" horiz-adv-x="616" 
d="M537 614v-614h-34l-375 533v-533h-49v614h49l360 -512v512h49z" />
    <glyph glyph-name="O" unicode="O" horiz-adv-x="620" 
d="M582 307c0 -188 -115 -316 -272 -316c-156 0 -271 128 -271 316s115 316 271 316c157 0 272 -128 272 -316zM530 307c0 158 -89 268 -220 268c-130 0 -219 -110 -219 -268s89 -268 219 -268c131 0 220 110 220 268z" />
    <glyph glyph-name="P" unicode="P" horiz-adv-x="529" 
d="M296 265h-166v-265h-51v614h217c120 0 199 -60 199 -174c0 -115 -79 -175 -199 -175zM444 440c0 80 -55 128 -150 128h-164v-256h164c95 0 150 47 150 128z" />
    <glyph glyph-name="Q" unicode="Q" horiz-adv-x="620" 
d="M504 -32l-51 65c-41 -28 -90 -42 -143 -42c-156 0 -271 128 -271 316s115 316 271 316c157 0 272 -128 272 -316c0 -105 -36 -190 -94 -246l50 -65zM530 307c0 158 -89 268 -220 268c-130 0 -219 -110 -219 -268s89 -268 219 -268c43 0 81 11 114 32l-52 67l35 27l51 -66
c46 46 72 118 72 208z" />
    <glyph glyph-name="R" unicode="R" horiz-adv-x="549" 
d="M276 271h-146v-271h-51v614h212c120 0 198 -60 198 -172c0 -99 -61 -156 -157 -169l186 -273h-59zM130 568v-252h159c94 0 150 47 150 126c0 81 -56 126 -150 126h-159z" />
    <glyph glyph-name="S" unicode="S" horiz-adv-x="466" 
d="M39 52v59c59 -53 119 -73 190 -73c88 0 144 44 144 115c0 62 -35 87 -110 119l-90 38c-64 27 -133 64 -133 157c0 104 87 156 186 156c64 0 127 -19 172 -52v-57c-48 40 -102 62 -171 62c-76 0 -137 -36 -137 -108c0 -60 42 -86 107 -112l95 -40c90 -39 131 -83 131 -162
c0 -98 -82 -163 -194 -163c-82 0 -150 26 -190 61z" />
    <glyph glyph-name="T" unicode="T" horiz-adv-x="562" 
d="M31 567v47h500v-47h-225v-567h-51v567h-224z" />
    <glyph glyph-name="U" unicode="U" horiz-adv-x="605" 
d="M302 -9c-132 0 -235 82 -235 251v372h51v-365c0 -144 78 -211 184 -211s185 67 185 211v365h51v-372c0 -169 -104 -251 -236 -251z" />
    <glyph glyph-name="V" unicode="V" horiz-adv-x="577" 
d="M311 0h-46l-242 614h53l212 -544l214 544h52z" />
    <glyph glyph-name="W" unicode="W" horiz-adv-x="759" 
d="M359 614h42l144 -528l142 528h50l-167 -614h-46l-145 523l-144 -523h-45l-168 614h51l142 -528z" />
    <glyph glyph-name="X" unicode="X" horiz-adv-x="540" 
d="M509 614l-210 -302l218 -312h-58l-190 271l-189 -271h-56l217 311l-211 303h58l182 -262l183 262h56z" />
    <glyph glyph-name="Y" unicode="Y" horiz-adv-x="535" 
d="M269 309l193 305h55l-224 -352v-262h-51v262l-223 352h56z" />
    <glyph glyph-name="Z" unicode="Z" horiz-adv-x="517" 
d="M483 47v-47h-455v4l375 563h-359v47h442v-4l-374 -563h371z" />
    <glyph glyph-name="bracketleft" unicode="[" horiz-adv-x="311" 
d="M126 605v-644h158v-45h-205v734h205v-45h-158z" />
    <glyph glyph-name="backslash" unicode="\" horiz-adv-x="306" 
d="M53 650l248 -734h-48l-248 734h48z" />
    <glyph glyph-name="bracketright" unicode="]" horiz-adv-x="311" 
d="M185 -39v644h-158v45h205v-734h-205v45h158z" />
    <glyph glyph-name="asciicircum" unicode="^" horiz-adv-x="321" 
d="M139 614h43l114 -181h-53l-83 129l-82 -129h-53z" />
    <glyph glyph-name="underscore" unicode="_" horiz-adv-x="352" 
d="M20 -88v46h312v-46h-312z" />
    <glyph glyph-name="quoteleft" unicode="&#x2018;" horiz-adv-x="141" 
d="M121 614l-52 -97c17 -3 31 -15 31 -36s-16 -38 -37 -38c-22 0 -38 16 -38 40c0 16 6 30 14 44l47 87h35z" />
    <glyph glyph-name="a" unicode="a" horiz-adv-x="435" 
d="M321 219v89c0 60 -42 99 -110 99c-51 0 -93 -15 -129 -39v48c30 20 79 37 134 37c94 0 153 -54 153 -142v-311h-48v42c-19 -23 -68 -49 -123 -49c-90 0 -164 52 -164 137c0 82 74 136 166 136c53 0 101 -25 121 -47zM321 101v57c-14 38 -64 66 -118 66
c-63 0 -121 -31 -121 -94s58 -95 121 -95c54 0 104 28 118 66z" />
    <glyph glyph-name="b" unicode="b" horiz-adv-x="492" 
d="M121 66v-66h-49v650h49v-272c25 38 77 75 138 75c131 0 194 -108 194 -231s-63 -231 -194 -231c-61 0 -113 37 -138 75zM121 319v-194c30 -57 80 -88 134 -88c93 0 148 78 148 185s-55 185 -148 185c-54 0 -104 -31 -134 -88z" />
    <glyph glyph-name="c" unicode="c" horiz-adv-x="402" 
d="M39 222c0 140 88 231 207 231c43 0 87 -12 118 -39v-51c-35 32 -72 45 -116 45c-88 0 -159 -69 -159 -186s71 -186 159 -186c44 0 81 13 116 45v-51c-31 -27 -75 -39 -118 -39c-119 0 -207 91 -207 231z" />
    <glyph glyph-name="d" unicode="d" horiz-adv-x="492" 
d="M371 0v66c-25 -38 -77 -75 -138 -75c-131 0 -194 108 -194 231s63 231 194 231c61 0 113 -37 138 -75v272h49v-650h-49zM371 125v194c-30 57 -80 88 -134 88c-93 0 -148 -78 -148 -185s55 -185 148 -185c54 0 104 31 134 88z" />
    <glyph glyph-name="e" unicode="e" horiz-adv-x="444" 
d="M88 218c0 -120 70 -183 162 -183c50 0 87 12 125 44v-49c-33 -27 -77 -39 -129 -39c-124 0 -207 88 -207 227c0 137 74 235 192 235c116 0 176 -88 176 -217v-18h-319zM231 409c-73 0 -129 -54 -141 -150h269c-3 78 -40 150 -128 150z" />
    <glyph glyph-name="f" unicode="f" horiz-adv-x="258" 
d="M269 650v-46c-13 7 -28 11 -45 11c-47 0 -81 -34 -81 -96v-75h104v-43h-104v-401h-49v401h-72v43h72v80c0 81 53 135 125 135c19 0 35 -3 50 -9z" />
    <glyph glyph-name="g" unicode="g" horiz-adv-x="488" 
d="M367 29v45c-25 -37 -76 -73 -137 -73c-129 0 -191 107 -191 226s62 226 191 226c61 0 112 -36 137 -74v65h49v-412c0 -147 -98 -211 -204 -211c-56 0 -106 17 -139 42v57c44 -40 91 -54 139 -54c87 0 155 52 155 163zM367 132v189c-29 55 -79 86 -132 86
c-92 0 -146 -75 -146 -180c0 -106 54 -181 146 -181c53 0 103 32 132 86z" />
    <glyph glyph-name="h" unicode="h" horiz-adv-x="483" 
d="M71 0v650h50v-277c27 42 79 80 142 80c101 0 154 -65 154 -159v-294h-49v287c0 69 -35 120 -114 120c-61 0 -111 -43 -133 -96v-311h-50z" />
    <glyph glyph-name="i" unicode="i" horiz-adv-x="192" 
d="M121 444v-444h-50v444h50zM130 579c0 -19 -15 -34 -34 -34s-34 15 -34 34c0 18 15 34 34 34s34 -16 34 -34z" />
    <glyph glyph-name="j" unicode="j" horiz-adv-x="192" 
d="M121 444v-508c0 -76 -43 -115 -112 -115c-8 0 -18 1 -23 3v44c5 -2 12 -3 20 -3c41 0 65 16 65 76v503h50zM130 579c0 -19 -15 -34 -34 -34s-34 15 -34 34c0 18 15 34 34 34s34 -16 34 -34z" />
    <glyph glyph-name="k" unicode="k" horiz-adv-x="425" 
d="M173 241l241 -241h-62l-231 228v-228h-50v650h50v-400l224 194h65z" />
    <glyph glyph-name="l" unicode="l" horiz-adv-x="192" 
d="M121 650v-650h-50v650h50z" />
    <glyph glyph-name="m" unicode="m" horiz-adv-x="713" 
d="M373 368c25 44 75 85 138 85c90 0 135 -64 135 -153v-300h-49v293c0 68 -30 114 -95 114c-55 0 -100 -40 -118 -93v-314h-50v293c0 68 -30 114 -95 114c-55 0 -100 -40 -118 -93v-314h-50v444h50v-68c22 42 68 77 128 77c64 0 106 -35 124 -85z" />
    <glyph glyph-name="n" unicode="n" horiz-adv-x="483" 
d="M71 0v444h50v-71c27 42 79 80 142 80c101 0 154 -65 154 -159v-294h-49v287c0 69 -35 120 -114 120c-61 0 -111 -43 -133 -96v-311h-50z" />
    <glyph glyph-name="o" unicode="o" horiz-adv-x="471" 
d="M432 222c0 -137 -79 -231 -197 -231c-117 0 -196 94 -196 231s79 231 196 231c118 0 197 -94 197 -231zM382 222c0 112 -58 187 -147 187c-88 0 -146 -75 -146 -187s58 -187 146 -187c89 0 147 75 147 187z" />
    <glyph glyph-name="p" unicode="p" horiz-adv-x="492" 
d="M121 66v-236h-50v614h50v-66c25 38 77 75 138 75c131 0 194 -109 194 -231s-63 -231 -194 -231c-61 0 -113 37 -138 75zM121 319v-194c30 -57 79 -88 133 -88c94 0 149 78 149 185s-55 185 -149 185c-54 0 -103 -31 -133 -88z" />
    <glyph glyph-name="q" unicode="q" horiz-adv-x="492" 
d="M371 -170v236c-25 -38 -77 -75 -138 -75c-131 0 -194 109 -194 231s63 231 194 231c61 0 113 -37 138 -75v66h50v-614h-50zM371 125v194c-30 57 -79 88 -133 88c-94 0 -149 -78 -149 -185s55 -185 149 -185c54 0 103 31 133 88z" />
    <glyph glyph-name="r" unicode="r" horiz-adv-x="301" 
d="M280 447v-49c-12 5 -25 8 -41 8c-54 0 -97 -39 -118 -96v-310h-50v444h50v-71c20 44 65 80 120 80c17 0 29 -3 39 -6z" />
    <glyph glyph-name="s" unicode="s" horiz-adv-x="381" 
d="M41 35v54c39 -34 84 -54 142 -54c55 0 106 22 106 79c0 38 -25 61 -70 77l-74 27c-60 22 -103 50 -103 118c0 75 66 117 147 117c47 0 94 -14 130 -40v-54c-37 29 -75 50 -130 50c-53 0 -98 -25 -98 -72c0 -42 28 -58 76 -76l77 -29c61 -21 94 -59 94 -116
c0 -80 -70 -125 -156 -125c-59 0 -112 20 -141 44z" />
    <glyph glyph-name="t" unicode="t" horiz-adv-x="292" 
d="M166 401v-401h-50v401h-95v43h95v114h50v-114h105v-43h-105z" />
    <glyph glyph-name="u" unicode="u" horiz-adv-x="481" 
d="M410 444v-444h-49v71c-27 -42 -78 -80 -141 -80c-101 0 -154 65 -154 159v294h49v-287c0 -69 35 -120 114 -120c61 0 110 43 132 96v311h49z" />
    <glyph glyph-name="v" unicode="v" horiz-adv-x="432" 
d="M238 0h-43l-177 444h53l146 -375l146 375h51z" />
    <glyph glyph-name="w" unicode="w" horiz-adv-x="604" 
d="M323 444l106 -366l109 366h48l-134 -444h-43l-107 367l-107 -367h-43l-134 444h49l109 -366l106 366h41z" />
    <glyph glyph-name="x" unicode="x" horiz-adv-x="431" 
d="M400 444l-157 -216l164 -228h-55l-137 190l-138 -190h-53l164 226l-157 218h55l130 -181l131 181h53z" />
    <glyph glyph-name="y" unicode="y" horiz-adv-x="432" 
d="M170 -170h-50l72 176l-174 438h53l146 -376l146 376h51z" />
    <glyph glyph-name="z" unicode="z" horiz-adv-x="416" 
d="M377 43v-43h-342v4l265 397h-253v43h331v-4l-264 -397h263z" />
    <glyph glyph-name="braceleft" unicode="{" horiz-adv-x="334" 
d="M152 213v-207c0 -31 15 -45 42 -45h113v-45h-112c-53 0 -91 38 -91 93v206c0 29 -14 45 -42 45h-42v46h42c28 0 42 15 42 45v206c0 55 38 93 91 93h112v-45h-113c-27 0 -42 -14 -42 -45v-207c0 -33 -17 -56 -40 -70c23 -15 40 -38 40 -70z" />
    <glyph glyph-name="bar" unicode="|" horiz-adv-x="205" 
d="M79 -84v734h47v-734h-47z" />
    <glyph glyph-name="braceright" unicode="}" horiz-adv-x="334" 
d="M182 6v207c0 32 17 55 40 70c-23 14 -40 37 -40 70v207c0 31 -15 45 -42 45h-113v45h112c53 0 91 -38 91 -93v-206c0 -30 14 -45 42 -45h42v-46h-42c-28 0 -42 -16 -42 -45v-206c0 -55 -38 -93 -91 -93h-112v45h113c27 0 42 14 42 45z" />
    <glyph glyph-name="asciitilde" unicode="~" horiz-adv-x="406" 
d="M321 329h45c0 -70 -33 -114 -89 -114c-65 0 -96 72 -142 72c-32 0 -50 -27 -50 -68h-45c0 69 33 113 90 113c64 0 94 -71 142 -71c32 0 49 26 49 68z" />
    <glyph glyph-name="exclamdown" unicode="&#xa1;" horiz-adv-x="209" 
d="M65 483c0 21 17 38 38 38c20 0 37 -17 37 -38c0 -22 -17 -39 -37 -39c-21 0 -38 17 -38 39zM75 -96l10 422h36l10 -422h-56z" />
    <glyph glyph-name="cent" unicode="&#xa2;" horiz-adv-x="402" 
d="M216 -84v87c-104 14 -177 101 -177 229s73 215 177 229v87h45v-86c38 -2 75 -14 103 -38v-51c-35 32 -72 45 -116 45c-88 0 -159 -69 -159 -186s71 -186 159 -186c44 0 81 13 116 45v-51c-28 -24 -65 -36 -103 -39v-85h-45z" />
    <glyph glyph-name="sterling" unicode="&#xa3;" horiz-adv-x="467" 
d="M31 281v42h90v86c0 130 69 214 193 214c43 0 84 -12 109 -29v-48c-28 18 -63 31 -109 31c-97 0 -145 -66 -145 -170v-84h169v-42h-169v-145c0 -35 -9 -71 -24 -91h293v-45h-407v45h65c15 23 25 47 25 91v145h-90z" />
    <glyph glyph-name="fraction" unicode="&#x2044;" horiz-adv-x="204" 
d="M324 614l-398 -614h-46l398 614h46z" />
    <glyph glyph-name="yen" unicode="&#xa5;" horiz-adv-x="516" 
d="M76 262v41h144l-191 311h56l174 -288l174 288h54l-191 -311h144v-41h-157v-77h157v-41h-157v-144h-50v144h-157v41h157v77h-157z" />
    <glyph glyph-name="florin" unicode="&#x192;" horiz-adv-x="384" 
d="M66 295v42h79l27 151c14 80 61 135 136 135c21 0 42 -5 59 -12v-46c-18 9 -36 14 -59 14c-47 0 -76 -36 -87 -96l-26 -146h103v-42h-111l-60 -340c-13 -74 -46 -128 -122 -128c-23 0 -41 4 -58 12v46c18 -9 37 -14 57 -14c48 0 65 36 75 89l59 335h-72z" />
    <glyph glyph-name="section" unicode="&#xa7;" horiz-adv-x="448" 
d="M305 281l-173 118c-32 -11 -57 -38 -57 -77c0 -38 31 -60 69 -86l173 -118c32 11 57 37 57 76s-32 61 -69 87zM101 432c-14 20 -22 42 -22 72c0 75 65 119 146 119c48 0 95 -14 131 -40v-54c-37 29 -76 50 -131 50c-52 0 -97 -25 -97 -75c0 -39 22 -61 65 -90l137 -93
c52 -35 91 -68 91 -126c0 -51 -28 -91 -74 -110c14 -20 22 -43 22 -73c0 -75 -65 -118 -146 -118c-47 0 -95 14 -131 40v54c37 -30 76 -51 131 -51c53 0 97 26 97 75c0 40 -22 62 -65 91l-137 93c-52 35 -91 68 -91 126c0 51 29 91 74 110z" />
    <glyph glyph-name="quotesingle" unicode="'" horiz-adv-x="126" 
d="M40 418v196h46v-196h-46z" />
    <glyph glyph-name="quotedblleft" unicode="&#x201c;" horiz-adv-x="264" 
d="M121 614l-52 -97c17 -3 31 -15 31 -36s-16 -38 -37 -38c-22 0 -38 16 -38 40c0 16 6 30 14 44l47 87h35zM244 614l-52 -97c17 -3 31 -15 31 -36s-16 -38 -37 -38c-22 0 -38 16 -38 40c0 16 6 30 14 44l47 87h35z" />
    <glyph glyph-name="guillemotleft" unicode="&#xab;" horiz-adv-x="314" 
d="M166 86h-49l-92 136l92 136h49l-92 -136zM289 86h-49l-92 136l92 136h49l-92 -136z" />
    <glyph glyph-name="guilsinglleft" unicode="&#x2039;" horiz-adv-x="192" 
d="M167 86h-50l-92 136l92 136h50l-92 -136z" />
    <glyph glyph-name="guilsinglright" unicode="&#x203a;" horiz-adv-x="192" 
d="M75 86h-50l92 136l-92 136h50l92 -136z" />
    <glyph glyph-name="fi" unicode="&#xfb01;" horiz-adv-x="450" 
d="M379 444v-444h-50v444h50zM388 579c0 -19 -15 -34 -34 -34s-34 15 -34 34c0 18 15 34 34 34s34 -16 34 -34zM269 650v-46c-13 7 -28 11 -45 11c-47 0 -81 -34 -81 -96v-75h104v-43h-104v-401h-49v401h-72v43h72v80c0 81 53 135 125 135c19 0 35 -3 50 -9z" />
    <glyph glyph-name="fl" unicode="&#xfb02;" horiz-adv-x="450" 
d="M379 650v-650h-50v650h50zM269 650v-46c-13 7 -28 11 -45 11c-47 0 -81 -34 -81 -96v-75h104v-43h-104v-401h-49v401h-72v43h72v80c0 81 53 135 125 135c19 0 35 -3 50 -9z" />
    <glyph glyph-name="endash" unicode="&#x2013;" horiz-adv-x="475" 
d="M40 239v41h395v-41h-395z" />
    <glyph glyph-name="dagger" unicode="&#x2020;" horiz-adv-x="300" 
d="M31 519v39h99v92h40v-92h99v-39h-99v-204h-40v204h-99z" />
    <glyph glyph-name="daggerdbl" unicode="&#x2021;" horiz-adv-x="304" 
d="M32 522v38h99v90h41v-90h100v-38h-100v-79h100v-38h-100v-90h-41v90h-99v38h99v79h-99z" />
    <glyph glyph-name="periodcentered" unicode="&#xb7;" horiz-adv-x="151" 
d="M38 261c0 22 17 39 37 39c21 0 38 -17 38 -39c0 -21 -17 -38 -38 -38c-20 0 -37 17 -37 38z" />
    <glyph glyph-name="paragraph" unicode="&#xb6;" horiz-adv-x="446" 
d="M324 -90v704h43v-704h-43zM213 -90v429c-93 0 -195 41 -195 138c0 96 102 137 195 137h44v-704h-44z" />
    <glyph glyph-name="bullet" unicode="&#x2022;" horiz-adv-x="332" 
d="M295 260c0 -75 -57 -128 -129 -128c-71 0 -128 53 -128 128s57 128 128 128c72 0 129 -53 129 -128z" />
    <glyph glyph-name="quotesinglbase" unicode="&#x201a;" horiz-adv-x="126" 
d="M20 -98l52 97c-17 3 -31 15 -31 36s16 38 37 38c22 0 38 -16 38 -40c0 -16 -6 -30 -14 -44l-47 -87h-35z" />
    <glyph glyph-name="quotedblbase" unicode="&#x201e;" horiz-adv-x="264" 
d="M20 -98l52 97c-17 3 -31 15 -31 36s16 38 37 38c22 0 38 -16 38 -40c0 -16 -6 -30 -14 -44l-47 -87h-35zM143 -98l52 97c-17 3 -31 15 -31 36s16 38 37 38c22 0 38 -16 38 -40c0 -16 -6 -30 -14 -44l-47 -87h-35z" />
    <glyph glyph-name="quotedblright" unicode="&#x201d;" horiz-adv-x="264" 
d="M20 452l52 97c-17 3 -31 15 -31 36s16 38 37 38c22 0 38 -16 38 -40c0 -16 -6 -30 -14 -44l-47 -87h-35zM143 452l52 97c-17 3 -31 15 -31 36s16 38 37 38c22 0 38 -16 38 -40c0 -16 -6 -30 -14 -44l-47 -87h-35z" />
    <glyph glyph-name="guillemotright" unicode="&#xbb;" horiz-adv-x="314" 
d="M197 86h-49l92 136l-92 136h49l92 -136zM74 86h-49l92 136l-92 136h49l92 -136z" />
    <glyph glyph-name="ellipsis" unicode="&#x2026;" horiz-adv-x="462" 
d="M33 35c0 22 17 39 37 39c21 0 38 -17 38 -39c0 -21 -17 -38 -38 -38c-20 0 -37 17 -37 38zM193 35c0 22 17 39 38 39c20 0 37 -17 37 -39c0 -21 -17 -38 -37 -38c-21 0 -38 17 -38 38zM354 35c0 22 17 39 37 39c21 0 38 -17 38 -39c0 -21 -17 -38 -38 -38
c-20 0 -37 17 -37 38z" />
    <glyph glyph-name="perthousand" unicode="&#x2030;" horiz-adv-x="907" 
d="M90 0l398 614h43l-398 -614h-43zM583 119c0 -71 -56 -128 -126 -128s-127 57 -127 128c0 70 57 126 127 126s126 -56 126 -126zM37 495c0 71 56 128 127 128c70 0 127 -57 127 -128c0 -70 -57 -126 -127 -126c-71 0 -127 56 -127 126zM542 119c0 47 -38 85 -85 85
c-48 0 -86 -38 -86 -85c0 -48 38 -87 86 -87c47 0 85 39 85 87zM870 119c0 -71 -56 -128 -126 -128c-71 0 -128 57 -128 128c0 70 57 126 128 126c70 0 126 -56 126 -126zM829 119c0 47 -38 85 -85 85c-48 0 -87 -38 -87 -85c0 -48 39 -87 87 -87c47 0 85 39 85 87zM78 495
c0 -47 38 -85 86 -85s86 38 86 85c0 48 -38 87 -86 87s-86 -39 -86 -87z" />
    <glyph glyph-name="questiondown" unicode="&#xbf;" horiz-adv-x="414" 
d="M179 214c-37 -42 -92 -88 -92 -153c0 -72 45 -118 129 -118c71 0 132 43 175 91v-56c-38 -44 -104 -83 -177 -83c-112 0 -177 65 -177 166c0 73 56 127 104 179c32 35 42 57 43 85h48c-3 -46 -19 -72 -53 -111zM247 483c0 -22 -17 -39 -37 -39c-21 0 -38 17 -38 39
c0 21 17 38 38 38c20 0 37 -17 37 -38z" />
    <glyph glyph-name="grave" unicode="`" 
d="M318 520h-49l-87 130h53z" />
    <glyph glyph-name="acute" unicode="&#xb4;" 
d="M231 520h-49l83 130h53z" />
    <glyph glyph-name="circumflex" unicode="&#x2c6;" 
d="M272 644l92 -131h-46l-68 97l-68 -97h-46l92 131h44z" />
    <glyph glyph-name="tilde" unicode="&#x2dc;" 
d="M338 625h35c0 -63 -23 -105 -68 -105c-50 0 -73 65 -108 65c-23 0 -36 -24 -36 -62h-35c0 63 23 105 68 105c51 0 73 -65 108 -65c23 0 36 25 36 62z" />
    <glyph glyph-name="macron" unicode="&#xaf;" 
d="M149 537v41h201v-41h-201z" />
    <glyph glyph-name="breve" unicode="&#x2d8;" 
d="M250 506c-59 0 -102 42 -102 120h40c0 -52 25 -83 62 -83s62 31 62 83h40c0 -78 -43 -120 -102 -120z" />
    <glyph glyph-name="dotaccent" unicode="&#x2d9;" 
d="M284 579c0 -19 -15 -34 -34 -34s-34 15 -34 34c0 18 15 34 34 34s34 -16 34 -34z" />
    <glyph glyph-name="dieresis" unicode="&#xa8;" 
d="M155 571c0 18 14 32 33 32c18 0 32 -14 32 -32c0 -19 -14 -33 -32 -33c-19 0 -33 14 -33 33zM280 571c0 18 14 32 32 32s33 -14 33 -32c0 -19 -15 -33 -33 -33s-32 14 -32 33z" />
    <glyph glyph-name="ring" unicode="&#x2da;" 
d="M331 580c0 -45 -36 -81 -81 -81s-81 36 -81 81s36 81 81 81s81 -36 81 -81zM299 580c0 28 -22 49 -49 49s-49 -21 -49 -49s22 -49 49 -49s49 21 49 49z" />
    <glyph glyph-name="cedilla" unicode="&#xb8;" 
d="M241 -175h-46l59 127h48z" />
    <glyph glyph-name="hungarumlaut" unicode="&#x2dd;" 
d="M180 520h-45l74 130h45zM290 520h-45l74 130h45z" />
    <glyph glyph-name="ogonek" unicode="&#x2db;" 
d="M263 4h40c-42 -73 -52 -95 -52 -121c0 -19 10 -28 25 -28c14 0 24 5 37 14v-36c-13 -9 -27 -15 -45 -15c-34 0 -57 20 -57 60c0 32 17 63 52 126z" />
    <glyph glyph-name="caron" unicode="&#x2c7;" 
d="M364 645l-92 -130h-44l-92 130h46l68 -95l68 95h46z" />
    <glyph glyph-name="emdash" unicode="&#x2014;" horiz-adv-x="846" 
d="M40 239v41h766v-41h-766z" />
    <glyph glyph-name="AE" unicode="&#xc6;" horiz-adv-x="858" 
d="M405 614h397v-47h-318v-227h287v-47h-287v-246h318v-47h-368v202h-231l-126 -202h-54zM434 569l-202 -321h202v321z" />
    <glyph glyph-name="ordfeminine" unicode="&#xaa;" horiz-adv-x="282" 
d="M203 471v50c0 37 -27 61 -72 61c-32 0 -60 -10 -84 -26v42c20 14 55 24 92 24c68 0 108 -36 108 -98v-203h-44v25c-12 -13 -43 -30 -79 -30c-60 0 -109 35 -109 92c0 55 49 92 111 92c33 0 64 -16 77 -29zM203 391v34c-8 23 -39 39 -71 39c-38 0 -74 -18 -74 -55
c0 -38 36 -57 74 -57c32 0 63 16 71 39z" />
    <glyph glyph-name="Lslash" unicode="&#x141;" horiz-adv-x="515" 
d="M30 246v49l61 24v295h51v-276l157 64v-49l-157 -63v-243h333v-47h-384v271z" />
    <glyph glyph-name="Oslash" unicode="&#xd8;" horiz-adv-x="630" 
d="M50 7l64 79c-44 55 -70 131 -70 221c0 188 115 316 271 316c69 0 131 -25 177 -69l52 64l32 -24l-57 -70c43 -55 68 -130 68 -217c0 -188 -115 -316 -272 -316c-68 0 -127 24 -173 66l-60 -74zM96 307c0 -73 18 -135 50 -181l315 390c-37 37 -87 59 -146 59
c-130 0 -219 -110 -219 -268zM535 307c0 70 -17 131 -48 177l-315 -389c37 -36 85 -56 143 -56c131 0 220 110 220 268z" />
    <glyph glyph-name="OE" unicode="&#x152;" horiz-adv-x="840" 
d="M784 614v-47h-317v-227h286v-47h-286v-246h317v-47h-447c-178 0 -298 120 -298 307s120 307 298 307h447zM336 47h80v520h-80c-150 0 -246 -103 -246 -260s96 -260 246 -260z" />
    <glyph glyph-name="ordmasculine" unicode="&#xba;" horiz-adv-x="304" 
d="M286 469c0 -91 -53 -154 -134 -154s-135 63 -135 154s54 153 135 153s134 -62 134 -153zM241 469c0 67 -35 114 -89 114s-89 -47 -89 -114c0 -68 35 -114 89 -114s89 46 89 114z" />
    <glyph glyph-name="ae" unicode="&#xe6;" horiz-adv-x="723" 
d="M524 -9c-82 0 -143 40 -175 106c-28 -52 -80 -104 -163 -104c-87 0 -152 51 -152 131c0 83 75 134 167 134h121v38c0 69 -43 111 -111 111c-51 0 -93 -15 -129 -39v48c30 20 79 37 134 37c76 0 126 -43 140 -99c30 59 81 99 153 99c117 0 177 -89 177 -218v-18h-319
c2 -123 71 -182 161 -182c50 0 87 12 126 44v-49c-34 -27 -78 -39 -130 -39zM188 35c70 0 116 47 134 103v79h-119c-63 0 -121 -29 -121 -91c0 -61 48 -91 106 -91zM509 409c-74 0 -130 -57 -140 -151h268c-3 78 -39 151 -128 151z" />
    <glyph glyph-name="dotlessi" unicode="&#x131;" horiz-adv-x="192" 
d="M121 444v-444h-50v444h50z" />
    <glyph glyph-name="lslash" unicode="&#x142;" horiz-adv-x="231" 
d="M140 650v-243l66 46v-49l-66 -46v-358h-50v330l-60 -41v49l60 41v271h50z" />
    <glyph glyph-name="oslash" unicode="&#xf8;" horiz-adv-x="481" 
d="M44 -1l49 62c-32 40 -49 96 -49 161c0 137 79 231 196 231c48 0 90 -16 123 -45l42 54l29 -21l-46 -59c31 -40 49 -95 49 -160c0 -137 -79 -231 -197 -231c-49 0 -90 16 -123 44l-44 -57zM93 222c0 -49 10 -91 30 -122l212 272c-25 24 -57 37 -95 37
c-88 0 -147 -75 -147 -187zM388 222c0 48 -11 90 -30 121l-212 -271c24 -24 56 -37 94 -37c89 0 148 75 148 187z" />
    <glyph glyph-name="oe" unicode="&#x153;" horiz-adv-x="784" 
d="M235 453c79 0 140 -46 171 -115c30 69 87 115 164 115c117 0 177 -88 177 -217v-18h-319c0 -120 70 -183 162 -183c50 0 87 12 125 44v-49c-34 -27 -78 -39 -129 -39c-84 0 -149 42 -181 111c-32 -67 -93 -111 -170 -111c-117 0 -196 94 -196 231s79 231 196 231z
M382 222c0 112 -58 187 -147 187c-88 0 -146 -75 -146 -187s58 -187 146 -187c89 0 147 75 147 187zM571 409c-73 0 -129 -54 -141 -150h269c-3 78 -40 150 -128 150z" />
    <glyph glyph-name="germandbls" unicode="&#xdf;" horiz-adv-x="484" 
d="M71 0v524c0 81 53 135 125 135c19 0 35 -3 50 -9v-46c-13 7 -28 11 -45 11c-47 0 -81 -34 -81 -96v-75h334v-4l-158 -210c84 -35 152 -97 152 -194c0 -131 -98 -216 -270 -215v44c143 -1 221 64 221 171c0 87 -67 139 -164 173v4l141 188h-256v-401h-49z" />
    <glyph glyph-name="onesuperior" unicode="&#xb9;" horiz-adv-x="206" 
d="M154 615v-330h-44v279l-86 -44v45l102 50h28z" />
    <glyph glyph-name="trademark" unicode="&#x2122;" horiz-adv-x="559" 
d="M16 581v33h211v-33h-86v-221h-39v221h-86zM394 420h-4l-81 127v-187h-38v254h36l85 -136l85 136h34v-254h-38v187z" />
    <glyph glyph-name="Eth" unicode="&#xd0;" horiz-adv-x="616" 
d="M34 295v45h58v274h187c178 0 298 -120 298 -307s-120 -307 -298 -307h-187v295h-58zM143 47h136c151 0 246 103 246 260s-95 260 -246 260h-136v-227h130v-45h-130v-248z" />
    <glyph glyph-name="onehalf" unicode="&#xbd;" horiz-adv-x="653" 
d="M539 614l-417 -614h-45l417 614h45zM177 615v-330h-44v279l-86 -44v45l102 50h28zM461 39h139v-39h-215v2l102 126c34 41 61 70 61 110c0 34 -22 57 -62 57c-36 0 -71 -23 -94 -46v45c23 23 59 41 100 41c62 0 99 -37 99 -93c0 -47 -31 -84 -67 -128z" />
    <glyph glyph-name="plusminus" unicode="&#xb1;" horiz-adv-x="516" 
d="M237 495h42v-126h164v-42h-164v-126h-42v126h-164v42h164v126zM73 104v43h370v-43h-370z" />
    <glyph glyph-name="Thorn" unicode="&#xde;" horiz-adv-x="529" 
d="M301 140h-171v-140h-51v614h51v-125h171c120 0 194 -60 194 -174c0 -115 -74 -175 -194 -175zM444 315c0 81 -50 128 -145 128h-169v-256h169c95 0 145 47 145 128z" />
    <glyph glyph-name="onequarter" unicode="&#xbc;" horiz-adv-x="643" 
d="M539 614l-417 -614h-45l417 614h45zM501 330l-100 -218h99v76h39v-76h55v-37h-55v-75h-39v75h-159v3l117 252h43zM177 615v-330h-44v279l-86 -44v45l102 50h28z" />
    <glyph glyph-name="divide" unicode="&#xf7;" horiz-adv-x="514" 
d="M71 273v43h372v-43h-372zM220 447c0 21 17 38 37 38c19 0 36 -17 36 -38c0 -20 -17 -36 -36 -36c-20 0 -37 16 -37 36zM220 142c0 20 17 37 37 37c19 0 36 -17 36 -37c0 -21 -17 -37 -36 -37c-20 0 -37 16 -37 37z" />
    <glyph glyph-name="degree" unicode="&#xb0;" horiz-adv-x="316" 
d="M85 508c0 -41 33 -74 73 -74c41 0 74 33 74 74c0 42 -33 75 -74 75c-40 0 -73 -33 -73 -75zM271 508c0 -63 -50 -114 -113 -114s-113 51 -113 114c0 64 50 115 113 115s113 -51 113 -115z" />
    <glyph glyph-name="thorn" unicode="&#xfe;" horiz-adv-x="492" 
d="M121 66v-236h-50v820h50v-272c25 38 77 75 138 75c131 0 194 -109 194 -231s-63 -231 -194 -231c-61 0 -113 37 -138 75zM121 319v-194c30 -57 79 -88 133 -88c94 0 149 78 149 185s-55 185 -149 185c-54 0 -103 -31 -133 -88z" />
    <glyph glyph-name="threequarters" unicode="&#xbe;" horiz-adv-x="670" 
d="M566 614l-417 -614h-46l417 614h46zM53 575v39h200v-2l-85 -130c50 -7 88 -43 88 -97c0 -65 -51 -106 -113 -106c-42 0 -69 11 -91 27v46c25 -23 55 -35 88 -35c43 0 74 25 74 68c0 48 -45 74 -102 70v2l78 118h-137zM528 330l-100 -218h98v76h40v-76h55v-37h-55v-75h-40
v75h-158v3l117 252h43z" />
    <glyph glyph-name="twosuperior" unicode="&#xb2;" horiz-adv-x="263" 
d="M97 324h139v-39h-215v2l103 126c33 41 60 70 60 110c0 34 -22 57 -62 57c-36 0 -71 -23 -93 -46v45c22 23 58 41 99 41c62 0 99 -37 99 -93c0 -47 -31 -84 -67 -129z" />
    <glyph glyph-name="registered" unicode="&#xae;" horiz-adv-x="418" 
d="M390 440c0 -106 -82 -183 -181 -183s-181 77 -181 183s82 183 181 183s181 -77 181 -183zM362 440c0 90 -69 155 -153 155s-153 -65 -153 -155c0 -91 69 -156 153 -156s153 65 153 156zM205 420h-30v-74h-33v192h78c40 0 67 -22 67 -59c0 -31 -19 -51 -46 -57l53 -76h-39
zM254 479c0 16 -12 29 -33 29h-46v-58h46c21 0 33 13 33 29z" />
    <glyph glyph-name="minus" unicode="&#x2212;" horiz-adv-x="514" 
d="M71 273v43h372v-43h-372z" />
    <glyph glyph-name="eth" unicode="&#xf0;" horiz-adv-x="471" 
d="M138 501l-13 34l98 32c-29 27 -62 54 -98 79v4h63c29 -20 57 -43 82 -68l81 27l12 -33l-65 -22c81 -90 134 -206 134 -330c0 -139 -79 -233 -197 -233c-117 0 -196 94 -196 230c0 137 79 230 193 230c53 0 92 -24 120 -58h2c-18 41 -52 94 -102 146zM382 221
c0 112 -58 186 -147 186c-88 0 -146 -74 -146 -186c0 -111 58 -186 146 -186c89 0 147 75 147 186z" />
    <glyph glyph-name="multiply" unicode="&#xd7;" horiz-adv-x="442" 
d="M193 292l-122 122l30 29l120 -122l120 122l30 -29l-120 -122l120 -122l-30 -29l-120 121l-120 -121l-30 29z" />
    <glyph glyph-name="copyright" unicode="&#xa9;" horiz-adv-x="708" 
d="M670 307c0 -183 -143 -316 -316 -316s-315 133 -315 316s142 316 315 316s316 -133 316 -316zM638 307c0 165 -128 284 -284 284s-284 -119 -284 -284s128 -284 284 -284s284 119 284 284zM179 309c0 122 78 199 181 199c46 0 78 -12 104 -31v-51c-31 26 -63 37 -101 37
c-78 0 -135 -59 -135 -154c0 -94 57 -154 135 -154c38 0 70 11 101 37v-51c-26 -19 -58 -31 -104 -31c-103 0 -181 77 -181 199z" />
    <glyph glyph-name="Aacute" unicode="&#xc1;" horiz-adv-x="579" 
d="M266 614h47l243 -614h-51l-80 202h-272l-79 -202h-51zM289 548l-118 -300h236zM315 665h-50l82 117h56z" />
    <glyph glyph-name="Acircumflex" unicode="&#xc2;" horiz-adv-x="579" 
d="M266 614h47l243 -614h-51l-80 202h-272l-79 -202h-51zM289 548l-118 -300h236zM311 786l92 -119h-47l-67 84l-67 -84h-47l92 119h44z" />
    <glyph glyph-name="Adieresis" unicode="&#xc4;" horiz-adv-x="579" 
d="M266 614h47l243 -614h-51l-80 202h-272l-79 -202h-51zM289 548l-118 -300h236zM195 715c0 19 14 33 33 33c18 0 32 -14 32 -33c0 -18 -14 -33 -32 -33c-19 0 -33 15 -33 33zM320 715c0 19 14 33 32 33s33 -14 33 -33c0 -18 -15 -33 -33 -33s-32 15 -32 33z" />
    <glyph glyph-name="Agrave" unicode="&#xc0;" horiz-adv-x="579" 
d="M266 614h47l243 -614h-51l-80 202h-272l-79 -202h-51zM289 548l-118 -300h236zM313 665h-51l-87 117h55z" />
    <glyph glyph-name="Aring" unicode="&#xc5;" horiz-adv-x="579" 
d="M266 614h47l243 -614h-51l-80 202h-272l-79 -202h-51zM289 548l-118 -300h236zM370 728c0 -45 -36 -80 -81 -80s-81 35 -81 80c0 46 36 81 81 81s81 -35 81 -81zM338 728c0 28 -22 50 -49 50s-49 -22 -49 -50c0 -27 22 -49 49 -49s49 22 49 49z" />
    <glyph glyph-name="Atilde" unicode="&#xc3;" horiz-adv-x="579" 
d="M266 614h47l243 -614h-51l-80 202h-272l-79 -202h-51zM289 548l-118 -300h236zM380 769h35c0 -63 -24 -104 -69 -104c-51 0 -73 64 -110 64c-24 0 -36 -24 -36 -61h-36c0 62 24 104 69 104c52 0 73 -64 110 -64c24 0 36 24 37 61z" />
    <glyph glyph-name="Ccedilla" unicode="&#xc7;" horiz-adv-x="535" 
d="M39 307c0 195 123 316 278 316c74 0 127 -20 168 -53v-56c-51 44 -103 61 -167 61c-131 0 -227 -102 -227 -268s96 -268 227 -268c64 0 116 18 167 62v-57c-41 -33 -94 -53 -168 -53c-155 0 -278 121 -278 316zM280 -175h-46l59 127h48z" />
    <glyph glyph-name="Eacute" unicode="&#xc9;" horiz-adv-x="515" 
d="M294 665h-50l82 117h56zM79 614h381v-47h-331v-227h300v-47h-300v-246h331v-47h-381v614z" />
    <glyph glyph-name="Ecircumflex" unicode="&#xca;" horiz-adv-x="515" 
d="M79 614h381v-47h-331v-227h300v-47h-300v-246h331v-47h-381v614zM296 786l92 -119h-47l-67 84l-67 -84h-47l92 119h44z" />
    <glyph glyph-name="Edieresis" unicode="&#xcb;" horiz-adv-x="515" 
d="M179 715c0 19 14 33 33 33c18 0 32 -14 32 -33c0 -18 -14 -33 -32 -33c-19 0 -33 15 -33 33zM304 715c0 19 14 33 32 33s33 -14 33 -33c0 -18 -15 -33 -33 -33s-32 15 -32 33zM79 614h381v-47h-331v-227h300v-47h-300v-246h331v-47h-381v614z" />
    <glyph glyph-name="Egrave" unicode="&#xc8;" horiz-adv-x="515" 
d="M301 665h-51l-87 117h55zM79 614h381v-47h-331v-227h300v-47h-300v-246h331v-47h-381v614z" />
    <glyph glyph-name="Iacute" unicode="&#xcd;" horiz-adv-x="209" 
d="M130 614v-614h-51v614h51zM124 665h-50l82 117h56z" />
    <glyph glyph-name="Icircumflex" unicode="&#xce;" horiz-adv-x="209" 
d="M130 614v-614h-51v614h51zM126 786l92 -119h-47l-67 84l-67 -84h-47l92 119h44z" />
    <glyph glyph-name="Idieresis" unicode="&#xcf;" horiz-adv-x="209" 
d="M130 614v-614h-51v614h51zM9 715c0 19 14 33 33 33c18 0 32 -14 32 -33c0 -18 -14 -33 -32 -33c-19 0 -33 15 -33 33zM134 715c0 19 14 33 32 33s33 -14 33 -33c0 -18 -15 -33 -33 -33s-32 15 -32 33z" />
    <glyph glyph-name="Igrave" unicode="&#xcc;" horiz-adv-x="209" 
d="M130 614v-614h-51v614h51zM131 665h-51l-87 117h55z" />
    <glyph glyph-name="Ntilde" unicode="&#xd1;" horiz-adv-x="616" 
d="M398 769h35c0 -63 -24 -104 -69 -104c-51 0 -73 64 -110 64c-24 0 -36 -24 -36 -61h-36c0 62 24 104 69 104c52 0 73 -64 110 -64c24 0 36 24 37 61zM537 614v-614h-34l-375 533v-533h-49v614h49l360 -512v512h49z" />
    <glyph glyph-name="Oacute" unicode="&#xd3;" horiz-adv-x="620" 
d="M330 665h-50l82 117h56zM582 307c0 -188 -115 -316 -272 -316c-156 0 -271 128 -271 316s115 316 271 316c157 0 272 -128 272 -316zM530 307c0 158 -89 268 -220 268c-130 0 -219 -110 -219 -268s89 -268 219 -268c131 0 220 110 220 268z" />
    <glyph glyph-name="Ocircumflex" unicode="&#xd4;" horiz-adv-x="620" 
d="M582 307c0 -188 -115 -316 -272 -316c-156 0 -271 128 -271 316s115 316 271 316c157 0 272 -128 272 -316zM530 307c0 158 -89 268 -220 268c-130 0 -219 -110 -219 -268s89 -268 219 -268c131 0 220 110 220 268zM332 786l92 -119h-47l-67 84l-67 -84h-47l92 119h44z
" />
    <glyph glyph-name="Odieresis" unicode="&#xd6;" horiz-adv-x="620" 
d="M215 715c0 19 14 33 33 33c18 0 32 -14 32 -33c0 -18 -14 -33 -32 -33c-19 0 -33 15 -33 33zM340 715c0 19 14 33 32 33s33 -14 33 -33c0 -18 -15 -33 -33 -33s-32 15 -32 33zM582 307c0 -188 -115 -316 -272 -316c-156 0 -271 128 -271 316s115 316 271 316
c157 0 272 -128 272 -316zM530 307c0 158 -89 268 -220 268c-130 0 -219 -110 -219 -268s89 -268 219 -268c131 0 220 110 220 268z" />
    <glyph glyph-name="Ograve" unicode="&#xd2;" horiz-adv-x="620" 
d="M337 665h-51l-87 117h55zM582 307c0 -188 -115 -316 -272 -316c-156 0 -271 128 -271 316s115 316 271 316c157 0 272 -128 272 -316zM530 307c0 158 -89 268 -220 268c-130 0 -219 -110 -219 -268s89 -268 219 -268c131 0 220 110 220 268z" />
    <glyph glyph-name="Otilde" unicode="&#xd5;" horiz-adv-x="620" 
d="M401 769h35c0 -63 -24 -104 -69 -104c-51 0 -73 64 -110 64c-24 0 -36 -24 -36 -61h-36c0 62 24 104 69 104c52 0 73 -64 110 -64c24 0 36 24 37 61zM582 307c0 -188 -115 -316 -272 -316c-156 0 -271 128 -271 316s115 316 271 316c157 0 272 -128 272 -316zM530 307
c0 158 -89 268 -220 268c-130 0 -219 -110 -219 -268s89 -268 219 -268c131 0 220 110 220 268z" />
    <glyph glyph-name="Scaron" unicode="&#x160;" horiz-adv-x="466" 
d="M39 52v59c59 -53 119 -73 190 -73c88 0 144 44 144 115c0 62 -35 87 -110 119l-90 38c-64 27 -133 64 -133 157c0 104 87 156 186 156c64 0 127 -19 172 -52v-57c-48 40 -102 62 -171 62c-76 0 -137 -36 -137 -108c0 -60 42 -86 107 -112l95 -40c90 -39 131 -83 131 -162
c0 -98 -82 -163 -194 -163c-82 0 -150 26 -190 61zM214 660l-92 119h47l67 -83l67 83h47l-92 -119h-44z" />
    <glyph glyph-name="Uacute" unicode="&#xda;" horiz-adv-x="605" 
d="M322 665h-50l82 117h56zM302 -9c-132 0 -235 82 -235 251v372h51v-365c0 -144 78 -211 184 -211s185 67 185 211v365h51v-372c0 -169 -104 -251 -236 -251z" />
    <glyph glyph-name="Ucircumflex" unicode="&#xdb;" horiz-adv-x="605" 
d="M302 -9c-132 0 -235 82 -235 251v372h51v-365c0 -144 78 -211 184 -211s185 67 185 211v365h51v-372c0 -169 -104 -251 -236 -251zM325 786l92 -119h-47l-67 84l-67 -84h-47l92 119h44z" />
    <glyph glyph-name="Udieresis" unicode="&#xdc;" horiz-adv-x="605" 
d="M208 715c0 19 14 33 33 33c18 0 32 -14 32 -33c0 -18 -14 -33 -32 -33c-19 0 -33 15 -33 33zM333 715c0 19 14 33 32 33s33 -14 33 -33c0 -18 -15 -33 -33 -33s-32 15 -32 33zM302 -9c-132 0 -235 82 -235 251v372h51v-365c0 -144 78 -211 184 -211s185 67 185 211v365
h51v-372c0 -169 -104 -251 -236 -251z" />
    <glyph glyph-name="Ugrave" unicode="&#xd9;" horiz-adv-x="605" 
d="M329 665h-51l-87 117h55zM302 -9c-132 0 -235 82 -235 251v372h51v-365c0 -144 78 -211 184 -211s185 67 185 211v365h51v-372c0 -169 -104 -251 -236 -251z" />
    <glyph glyph-name="Yacute" unicode="&#xdd;" horiz-adv-x="535" 
d="M269 309l193 305h55l-224 -352v-262h-51v262l-223 352h56zM287 665h-50l82 117h56z" />
    <glyph glyph-name="Ydieresis" unicode="&#x178;" horiz-adv-x="535" 
d="M269 309l193 305h55l-224 -352v-262h-51v262l-223 352h56zM173 715c0 19 14 33 33 33c18 0 32 -14 32 -33c0 -18 -14 -33 -32 -33c-19 0 -33 15 -33 33zM298 715c0 19 14 33 32 33s33 -14 33 -33c0 -18 -15 -33 -33 -33s-32 15 -32 33z" />
    <glyph glyph-name="Zcaron" unicode="&#x17d;" horiz-adv-x="517" 
d="M246 660l-92 119h47l67 -83l67 83h47l-92 -119h-44zM483 47v-47h-455v4l375 563h-359v47h442v-4l-374 -563h371z" />
    <glyph glyph-name="aacute" unicode="&#xe1;" horiz-adv-x="435" 
d="M321 219v89c0 60 -42 99 -110 99c-51 0 -93 -15 -129 -39v48c30 20 79 37 134 37c94 0 153 -54 153 -142v-311h-48v42c-19 -23 -68 -49 -123 -49c-90 0 -164 52 -164 137c0 82 74 136 166 136c53 0 101 -25 121 -47zM321 101v57c-14 38 -64 66 -118 66
c-63 0 -121 -31 -121 -94s58 -95 121 -95c54 0 104 28 118 66zM242 520h-49l83 130h53z" />
    <glyph glyph-name="acircumflex" unicode="&#xe2;" horiz-adv-x="435" 
d="M321 219v89c0 60 -42 99 -110 99c-51 0 -93 -15 -129 -39v48c30 20 79 37 134 37c94 0 153 -54 153 -142v-311h-48v42c-19 -23 -68 -49 -123 -49c-90 0 -164 52 -164 137c0 82 74 136 166 136c53 0 101 -25 121 -47zM321 101v57c-14 38 -64 66 -118 66
c-63 0 -121 -31 -121 -94s58 -95 121 -95c54 0 104 28 118 66zM244 644l92 -131h-46l-68 97l-68 -97h-46l92 131h44z" />
    <glyph glyph-name="adieresis" unicode="&#xe4;" horiz-adv-x="435" 
d="M321 219v89c0 60 -42 99 -110 99c-51 0 -93 -15 -129 -39v48c30 20 79 37 134 37c94 0 153 -54 153 -142v-311h-48v42c-19 -23 -68 -49 -123 -49c-90 0 -164 52 -164 137c0 82 74 136 166 136c53 0 101 -25 121 -47zM321 101v57c-14 38 -64 66 -118 66
c-63 0 -121 -31 -121 -94s58 -95 121 -95c54 0 104 28 118 66zM127 571c0 18 14 32 33 32c18 0 32 -14 32 -32c0 -19 -14 -33 -32 -33c-19 0 -33 14 -33 33zM252 571c0 18 14 32 32 32s33 -14 33 -32c0 -19 -15 -33 -33 -33s-32 14 -32 33z" />
    <glyph glyph-name="agrave" unicode="&#xe0;" horiz-adv-x="435" 
d="M321 219v89c0 60 -42 99 -110 99c-51 0 -93 -15 -129 -39v48c30 20 79 37 134 37c94 0 153 -54 153 -142v-311h-48v42c-19 -23 -68 -49 -123 -49c-90 0 -164 52 -164 137c0 82 74 136 166 136c53 0 101 -25 121 -47zM321 101v57c-14 38 -64 66 -118 66
c-63 0 -121 -31 -121 -94s58 -95 121 -95c54 0 104 28 118 66zM249 520h-49l-87 130h53z" />
    <glyph glyph-name="aring" unicode="&#xe5;" horiz-adv-x="435" 
d="M321 219v89c0 60 -42 99 -110 99c-51 0 -93 -15 -129 -39v48c30 20 79 37 134 37c94 0 153 -54 153 -142v-311h-48v42c-19 -23 -68 -49 -123 -49c-90 0 -164 52 -164 137c0 82 74 136 166 136c53 0 101 -25 121 -47zM321 101v57c-14 38 -64 66 -118 66
c-63 0 -121 -31 -121 -94s58 -95 121 -95c54 0 104 28 118 66zM303 580c0 -45 -36 -81 -81 -81s-81 36 -81 81s36 81 81 81s81 -36 81 -81zM271 580c0 28 -22 49 -49 49s-49 -21 -49 -49s22 -49 49 -49s49 21 49 49z" />
    <glyph glyph-name="atilde" unicode="&#xe3;" horiz-adv-x="435" 
d="M321 219v89c0 60 -42 99 -110 99c-51 0 -93 -15 -129 -39v48c30 20 79 37 134 37c94 0 153 -54 153 -142v-311h-48v42c-19 -23 -68 -49 -123 -49c-90 0 -164 52 -164 137c0 82 74 136 166 136c53 0 101 -25 121 -47zM321 101v57c-14 38 -64 66 -118 66
c-63 0 -121 -31 -121 -94s58 -95 121 -95c54 0 104 28 118 66zM311 625h35c0 -63 -23 -105 -68 -105c-50 0 -73 65 -108 65c-23 0 -36 -24 -36 -62h-35c0 63 23 105 68 105c51 0 73 -65 108 -65c23 0 36 25 36 62z" />
    <glyph glyph-name="ccedilla" unicode="&#xe7;" horiz-adv-x="402" 
d="M39 222c0 140 88 231 207 231c43 0 87 -12 118 -39v-51c-35 32 -72 45 -116 45c-88 0 -159 -69 -159 -186s71 -186 159 -186c44 0 81 13 116 45v-51c-31 -27 -75 -39 -118 -39c-119 0 -207 91 -207 231zM209 -175h-46l59 127h48z" />
    <glyph glyph-name="eacute" unicode="&#xe9;" horiz-adv-x="444" 
d="M88 218c0 -120 70 -183 162 -183c50 0 87 12 125 44v-49c-33 -27 -77 -39 -129 -39c-124 0 -207 88 -207 227c0 137 74 235 192 235c116 0 176 -88 176 -217v-18h-319zM231 409c-73 0 -129 -54 -141 -150h269c-3 78 -40 150 -128 150zM254 520h-49l83 130h53z" />
    <glyph glyph-name="ecircumflex" unicode="&#xea;" horiz-adv-x="444" 
d="M88 218c0 -120 70 -183 162 -183c50 0 87 12 125 44v-49c-33 -27 -77 -39 -129 -39c-124 0 -207 88 -207 227c0 137 74 235 192 235c116 0 176 -88 176 -217v-18h-319zM231 409c-73 0 -129 -54 -141 -150h269c-3 78 -40 150 -128 150zM256 644l92 -131h-46l-68 97
l-68 -97h-46l92 131h44z" />
    <glyph glyph-name="edieresis" unicode="&#xeb;" horiz-adv-x="444" 
d="M88 218c0 -120 70 -183 162 -183c50 0 87 12 125 44v-49c-33 -27 -77 -39 -129 -39c-124 0 -207 88 -207 227c0 137 74 235 192 235c116 0 176 -88 176 -217v-18h-319zM231 409c-73 0 -129 -54 -141 -150h269c-3 78 -40 150 -128 150zM139 571c0 18 14 32 33 32
c18 0 32 -14 32 -32c0 -19 -14 -33 -32 -33c-19 0 -33 14 -33 33zM264 571c0 18 14 32 32 32s33 -14 33 -32c0 -19 -15 -33 -33 -33s-32 14 -32 33z" />
    <glyph glyph-name="egrave" unicode="&#xe8;" horiz-adv-x="444" 
d="M88 218c0 -120 70 -183 162 -183c50 0 87 12 125 44v-49c-33 -27 -77 -39 -129 -39c-124 0 -207 88 -207 227c0 137 74 235 192 235c116 0 176 -88 176 -217v-18h-319zM231 409c-73 0 -129 -54 -141 -150h269c-3 78 -40 150 -128 150zM261 520h-49l-87 130h53z" />
    <glyph glyph-name="iacute" unicode="&#xed;" horiz-adv-x="192" 
d="M116 520h-49l83 130h53zM121 444v-444h-50v444h50z" />
    <glyph glyph-name="icircumflex" unicode="&#xee;" horiz-adv-x="192" 
d="M118 644l72 -131h-44l-50 94l-50 -94h-44l72 131h44zM121 444v-444h-50v444h50z" />
    <glyph glyph-name="idieresis" unicode="&#xef;" horiz-adv-x="192" 
d="M10 571c0 18 15 32 33 32s33 -14 33 -32c0 -19 -15 -33 -33 -33s-33 14 -33 33zM117 571c0 18 14 32 32 32c19 0 33 -14 33 -32c0 -19 -14 -33 -33 -33c-18 0 -32 14 -32 33zM121 444v-444h-50v444h50z" />
    <glyph glyph-name="igrave" unicode="&#xec;" horiz-adv-x="192" 
d="M121 444v-444h-50v444h50zM123 520h-49l-87 130h53z" />
    <glyph glyph-name="ntilde" unicode="&#xf1;" horiz-adv-x="483" 
d="M71 0v444h50v-71c27 42 79 80 142 80c101 0 154 -65 154 -159v-294h-49v287c0 69 -35 120 -114 120c-61 0 -111 -43 -133 -96v-311h-50zM333 625h35c0 -63 -23 -105 -68 -105c-50 0 -73 65 -108 65c-23 0 -36 -24 -36 -62h-35c0 63 23 105 68 105c51 0 73 -65 108 -65
c23 0 36 25 36 62z" />
    <glyph glyph-name="oacute" unicode="&#xf3;" horiz-adv-x="471" 
d="M255 520h-49l83 130h53zM432 222c0 -137 -79 -231 -197 -231c-117 0 -196 94 -196 231s79 231 196 231c118 0 197 -94 197 -231zM382 222c0 112 -58 187 -147 187c-88 0 -146 -75 -146 -187s58 -187 146 -187c89 0 147 75 147 187z" />
    <glyph glyph-name="ocircumflex" unicode="&#xf4;" horiz-adv-x="471" 
d="M257 644l92 -131h-46l-68 97l-68 -97h-46l92 131h44zM432 222c0 -137 -79 -231 -197 -231c-117 0 -196 94 -196 231s79 231 196 231c118 0 197 -94 197 -231zM382 222c0 112 -58 187 -147 187c-88 0 -146 -75 -146 -187s58 -187 146 -187c89 0 147 75 147 187z" />
    <glyph glyph-name="odieresis" unicode="&#xf6;" horiz-adv-x="471" 
d="M141 571c0 18 14 32 33 32c18 0 32 -14 32 -32c0 -19 -14 -33 -32 -33c-19 0 -33 14 -33 33zM266 571c0 18 14 32 32 32s33 -14 33 -32c0 -19 -15 -33 -33 -33s-32 14 -32 33zM432 222c0 -137 -79 -231 -197 -231c-117 0 -196 94 -196 231s79 231 196 231
c118 0 197 -94 197 -231zM382 222c0 112 -58 187 -147 187c-88 0 -146 -75 -146 -187s58 -187 146 -187c89 0 147 75 147 187z" />
    <glyph glyph-name="ograve" unicode="&#xf2;" horiz-adv-x="471" 
d="M432 222c0 -137 -79 -231 -197 -231c-117 0 -196 94 -196 231s79 231 196 231c118 0 197 -94 197 -231zM382 222c0 112 -58 187 -147 187c-88 0 -146 -75 -146 -187s58 -187 146 -187c89 0 147 75 147 187zM262 520h-49l-87 130h53z" />
    <glyph glyph-name="otilde" unicode="&#xf5;" horiz-adv-x="471" 
d="M432 222c0 -137 -79 -231 -197 -231c-117 0 -196 94 -196 231s79 231 196 231c118 0 197 -94 197 -231zM382 222c0 112 -58 187 -147 187c-88 0 -146 -75 -146 -187s58 -187 146 -187c89 0 147 75 147 187zM324 625h35c0 -63 -23 -105 -68 -105c-50 0 -73 65 -108 65
c-23 0 -36 -24 -36 -62h-35c0 63 23 105 68 105c51 0 73 -65 108 -65c23 0 36 25 36 62z" />
    <glyph glyph-name="scaron" unicode="&#x161;" horiz-adv-x="381" 
d="M309 645l-92 -130h-44l-92 130h46l68 -95l68 95h46zM41 35v54c39 -34 84 -54 142 -54c55 0 106 22 106 79c0 38 -25 61 -70 77l-74 27c-60 22 -103 50 -103 118c0 75 66 117 147 117c47 0 94 -14 130 -40v-54c-37 29 -75 50 -130 50c-53 0 -98 -25 -98 -72
c0 -42 28 -58 76 -76l77 -29c61 -21 94 -59 94 -116c0 -80 -70 -125 -156 -125c-59 0 -112 20 -141 44z" />
    <glyph glyph-name="uacute" unicode="&#xfa;" horiz-adv-x="481" 
d="M259 520h-49l83 130h53zM410 444v-444h-49v71c-27 -42 -78 -80 -141 -80c-101 0 -154 65 -154 159v294h49v-287c0 -69 35 -120 114 -120c61 0 110 43 132 96v311h49z" />
    <glyph glyph-name="ucircumflex" unicode="&#xfb;" horiz-adv-x="481" 
d="M261 644l92 -131h-46l-68 97l-68 -97h-46l92 131h44zM410 444v-444h-49v71c-27 -42 -78 -80 -141 -80c-101 0 -154 65 -154 159v294h49v-287c0 -69 35 -120 114 -120c61 0 110 43 132 96v311h49z" />
    <glyph glyph-name="udieresis" unicode="&#xfc;" horiz-adv-x="481" 
d="M144 571c0 18 14 32 33 32c18 0 32 -14 32 -32c0 -19 -14 -33 -32 -33c-19 0 -33 14 -33 33zM269 571c0 18 14 32 32 32s33 -14 33 -32c0 -19 -15 -33 -33 -33s-32 14 -32 33zM410 444v-444h-49v71c-27 -42 -78 -80 -141 -80c-101 0 -154 65 -154 159v294h49v-287
c0 -69 35 -120 114 -120c61 0 110 43 132 96v311h49z" />
    <glyph glyph-name="ugrave" unicode="&#xf9;" horiz-adv-x="481" 
d="M410 444v-444h-49v71c-27 -42 -78 -80 -141 -80c-101 0 -154 65 -154 159v294h49v-287c0 -69 35 -120 114 -120c61 0 110 43 132 96v311h49zM266 520h-49l-87 130h53z" />
    <glyph glyph-name="yacute" unicode="&#xfd;" horiz-adv-x="432" 
d="M170 -170h-50l72 176l-174 438h53l146 -376l146 376h51zM236 520h-49l83 130h53z" />
    <glyph glyph-name="ydieresis" unicode="&#xff;" horiz-adv-x="432" 
d="M170 -170h-50l72 176l-174 438h53l146 -376l146 376h51zM122 571c0 18 14 32 33 32c18 0 32 -14 32 -32c0 -19 -14 -33 -32 -33c-19 0 -33 14 -33 33zM247 571c0 18 14 32 32 32s33 -14 33 -32c0 -19 -15 -33 -33 -33s-32 14 -32 33z" />
    <glyph glyph-name="zcaron" unicode="&#x17e;" horiz-adv-x="416" 
d="M323 645l-92 -130h-44l-92 130h46l68 -95l68 95h46zM377 43v-43h-342v4l265 397h-253v43h331v-4l-264 -397h263z" />
    <glyph glyph-name="Euro" unicode="&#x20ac;" horiz-adv-x="512" 
d="M27 225v41h58c-1 13 -2 27 -2 41c0 12 0 24 1 36h-57v41h62c25 149 124 239 246 239c60 0 105 -18 140 -46v-54c-43 39 -87 53 -140 53c-98 0 -173 -73 -195 -192h222l-10 -41h-218c-1 -12 -1 -24 -1 -36c0 -14 1 -28 2 -41h206l-10 -41h-190c23 -116 98 -187 194 -187
c53 0 97 16 140 54v-55c-35 -28 -80 -46 -140 -46c-120 0 -219 87 -245 234h-63z" />
    <glyph glyph-name="approxequal" unicode="&#x2248;" horiz-adv-x="521" 
d="M75 304v46c35 32 69 45 99 45c65 0 109 -47 170 -47c31 0 66 14 103 48v-46c-37 -33 -72 -45 -103 -45c-63 0 -108 47 -170 47c-30 0 -64 -15 -99 -48zM75 195v45c35 33 69 46 99 46c65 0 109 -48 170 -48c31 0 66 14 103 49v-46c-37 -34 -72 -45 -103 -45
c-63 0 -108 47 -170 47c-30 0 -64 -15 -99 -48z" />
    <glyph glyph-name="notequal" unicode="&#x2260;" horiz-adv-x="521" 
d="M75 338v41h228l69 89h45l-69 -89h99v-41h-131l-66 -86h197v-41h-229l-69 -90h-45l69 90h-98v41h130l66 86h-196z" />
    <glyph glyph-name="lessequal" unicode="&#x2264;" horiz-adv-x="399" 
d="M58 308v46l275 115v-46l-224 -92l224 -92v-46zM58 111v43h275v-43h-275z" />
    <glyph glyph-name="greaterequal" unicode="&#x2265;" horiz-adv-x="399" 
d="M341 354v-46l-274 -115v46l223 92l-223 92v46zM341 154v-43h-274v43h274z" />
    <glyph glyph-name="threesuperior" unicode="&#xb3;" horiz-adv-x="259" 
d="M27 575v40h200v-2l-85 -130c50 -7 88 -43 88 -97c0 -65 -51 -106 -113 -106c-42 0 -69 11 -91 27v46c25 -23 55 -35 88 -35c43 0 74 25 74 67c0 49 -45 75 -102 71v2l78 117h-137z" />
    <glyph glyph-name="Tcedilla" unicode="&#x162;" horiz-adv-x="562" 
d="M244 -183l36 67c-16 3 -30 14 -30 34s16 35 37 35c20 0 35 -15 35 -37c0 -16 -7 -28 -14 -41l-31 -58h-33zM31 567v47h500v-47h-225v-567h-51v567h-224z" />
    <glyph glyph-name="tcedilla" unicode="&#x163;" horiz-adv-x="292" 
d="M97 -183l36 67c-16 3 -30 14 -30 34s16 35 37 35c20 0 35 -15 35 -37c0 -16 -7 -28 -14 -41l-31 -58h-33zM166 401v-401h-50v401h-95v43h95v114h50v-114h105v-43h-105z" />
    <glyph glyph-name="i.dot" horiz-adv-x="192" 
d="M121 444v-444h-50v444h50zM130 579c0 -19 -15 -34 -34 -34s-34 15 -34 34c0 18 15 34 34 34s34 -16 34 -34z" />
    <glyph glyph-name="uni0237" unicode="&#x237;" horiz-adv-x="192" 
d="M121 444v-508c0 -76 -43 -115 -112 -115c-8 0 -18 1 -23 3v44c5 -2 12 -3 20 -3c41 0 65 16 65 76v503h50z" />
    <glyph glyph-name="space_uni0326" 
d="M212 -183l36 67c-16 3 -30 14 -30 34s16 35 37 35c20 0 35 -15 35 -37c0 -16 -7 -28 -14 -41l-31 -58h-33z" />
    <glyph glyph-name="space_uni0326.alt" 
d="M288 663l-36 -68c16 -3 29 -15 29 -34c0 -20 -16 -36 -36 -36c-21 0 -37 16 -37 37c0 17 7 29 15 42l31 59h34z" />
    <glyph glyph-name="space_dotbelowcomb" 
d="M284 -112c0 -18 -15 -34 -34 -34s-34 16 -34 34c0 19 15 35 34 35s34 -16 34 -35z" />
    <glyph glyph-name="uni2117" unicode="&#x2117;" horiz-adv-x="708" 
d="M670 307c0 -183 -143 -316 -316 -316s-315 133 -315 316s142 316 315 316s316 -133 316 -316zM638 307c0 165 -128 284 -284 284s-284 -119 -284 -284s128 -284 284 -284s284 119 284 284zM388 270h-94v-146h-47v369h141c75 0 122 -38 122 -111s-47 -112 -122 -112z
M464 382c0 42 -26 69 -77 69h-93v-138h93c51 0 77 26 77 69z" />
    <glyph glyph-name=".null" horiz-adv-x="0" 
 />
    <glyph glyph-name="Abreve" unicode="&#x102;" horiz-adv-x="579" 
d="M266 614h47l243 -614h-51l-80 202h-272l-79 -202h-51zM289 548l-118 -300h236zM290 664c-60 0 -103 41 -103 117h40c0 -51 26 -79 63 -79c36 0 63 28 63 79h39c0 -76 -42 -117 -102 -117z" />
    <glyph glyph-name="Amacron" unicode="&#x100;" horiz-adv-x="579" 
d="M266 614h47l243 -614h-51l-80 202h-272l-79 -202h-51zM289 548l-118 -300h236zM189 670v42h201v-42h-201z" />
    <glyph glyph-name="Aogonek" unicode="&#x104;" horiz-adv-x="579" 
d="M266 614h47l243 -614c-42 -72 -50 -91 -50 -117c0 -19 10 -28 25 -28c14 0 24 5 37 14v-36c-13 -9 -27 -15 -45 -15c-34 0 -57 20 -57 60c0 32 15 60 51 122h-12l-80 202h-272l-79 -202h-51zM289 548l-118 -300h236z" />
    <glyph glyph-name="Aringacute" unicode="&#x1fa;" horiz-adv-x="579" 
d="M266 614h47l243 -614h-51l-80 202h-272l-79 -202h-51zM289 548l-118 -300h236zM373 711c0 -39 -37 -70 -84 -70c-46 0 -84 31 -84 70c0 41 38 72 84 72c47 0 84 -31 84 -72zM340 711c0 25 -22 42 -51 42c-28 0 -51 -17 -51 -42c0 -23 23 -40 51 -40c29 0 51 17 51 40z
M315 810h-48l58 83h53z" />
    <glyph glyph-name="AEacute" unicode="&#x1fc;" horiz-adv-x="858" 
d="M405 614h397v-47h-318v-227h287v-47h-287v-246h318v-47h-368v202h-231l-126 -202h-54zM434 569l-202 -321h202v321zM619 665h-50l82 117h56z" />
    <glyph glyph-name="Cacute" unicode="&#x106;" horiz-adv-x="535" 
d="M39 307c0 195 123 316 278 316c74 0 127 -20 168 -53v-56c-51 44 -103 61 -167 61c-131 0 -227 -102 -227 -268s96 -268 227 -268c64 0 116 18 167 62v-57c-41 -33 -94 -53 -168 -53c-155 0 -278 121 -278 316zM341 665h-50l82 117h56z" />
    <glyph glyph-name="Ccaron" unicode="&#x10c;" horiz-adv-x="535" 
d="M39 307c0 195 123 316 278 316c74 0 127 -20 168 -53v-56c-51 44 -103 61 -167 61c-131 0 -227 -102 -227 -268s96 -268 227 -268c64 0 116 18 167 62v-57c-41 -33 -94 -53 -168 -53c-155 0 -278 121 -278 316zM300 660l-92 119h47l67 -83l67 83h47l-92 -119h-44z" />
    <glyph glyph-name="Ccircumflex" unicode="&#x108;" horiz-adv-x="535" 
d="M39 307c0 195 123 316 278 316c74 0 127 -20 168 -53v-56c-51 44 -103 61 -167 61c-131 0 -227 -102 -227 -268s96 -268 227 -268c64 0 116 18 167 62v-57c-41 -33 -94 -53 -168 -53c-155 0 -278 121 -278 316zM344 786l92 -119h-47l-67 84l-67 -84h-47l92 119h44z" />
    <glyph glyph-name="Cdotaccent" unicode="&#x10a;" horiz-adv-x="535" 
d="M354 714c0 -19 -15 -34 -34 -34s-34 15 -34 34s15 34 34 34s34 -15 34 -34zM39 307c0 195 123 316 278 316c74 0 127 -20 168 -53v-56c-51 44 -103 61 -167 61c-131 0 -227 -102 -227 -268s96 -268 227 -268c64 0 116 18 167 62v-57c-41 -33 -94 -53 -168 -53
c-155 0 -278 121 -278 316z" />
    <glyph glyph-name="Dcaron" unicode="&#x10e;" horiz-adv-x="602" 
d="M255 660l-92 119h47l67 -83l67 83h47l-92 -119h-44zM130 47h136c151 0 246 103 246 260s-95 260 -246 260h-136v-520zM79 0v614h187c178 0 298 -120 298 -307s-120 -307 -298 -307h-187z" />
    <glyph glyph-name="Dcroat" unicode="&#x110;" horiz-adv-x="616" 
d="M34 295v45h58v274h187c178 0 298 -120 298 -307s-120 -307 -298 -307h-187v295h-58zM143 47h136c151 0 246 103 246 260s-95 260 -246 260h-136v-227h130v-45h-130v-248z" />
    <glyph glyph-name="Ebreve" unicode="&#x114;" horiz-adv-x="515" 
d="M274 664c-60 0 -103 41 -103 117h40c0 -51 26 -79 63 -79c36 0 63 28 63 79h39c0 -76 -42 -117 -102 -117zM79 614h381v-47h-331v-227h300v-47h-300v-246h331v-47h-381v614z" />
    <glyph glyph-name="Ecaron" unicode="&#x11a;" horiz-adv-x="515" 
d="M252 660l-92 119h47l67 -83l67 83h47l-92 -119h-44zM79 614h381v-47h-331v-227h300v-47h-300v-246h331v-47h-381v614z" />
    <glyph glyph-name="Edotaccent" unicode="&#x116;" horiz-adv-x="515" 
d="M308 714c0 -19 -15 -34 -34 -34s-34 15 -34 34s15 34 34 34s34 -15 34 -34zM79 614h381v-47h-331v-227h300v-47h-300v-246h331v-47h-381v614z" />
    <glyph glyph-name="Emacron" unicode="&#x112;" horiz-adv-x="515" 
d="M174 670v42h201v-42h-201zM79 614h381v-47h-331v-227h300v-47h-300v-246h331v-47h-381v614z" />
    <glyph glyph-name="Eogonek" unicode="&#x118;" horiz-adv-x="515" 
d="M79 614h381v-47h-331v-227h300v-47h-300v-246h331v-47h-35c-40 -69 -49 -91 -49 -117c0 -19 10 -28 25 -28c14 0 24 5 37 14v-36c-13 -9 -27 -15 -45 -15c-34 0 -57 20 -57 60c0 32 16 62 49 122h-306v614z" />
    <glyph glyph-name="Gbreve" unicode="&#x11e;" horiz-adv-x="587" 
d="M324 664c-60 0 -103 41 -103 117h40c0 -51 26 -79 63 -79c36 0 63 28 63 79h39c0 -76 -42 -117 -102 -117zM319 38c67 0 116 15 163 55v175h-155v43h202v-234c-57 -67 -137 -86 -211 -86c-160 0 -279 122 -279 316c0 195 123 316 285 316c72 0 136 -23 180 -59v-57
c-52 48 -115 68 -180 68c-137 0 -233 -102 -233 -268s94 -269 228 -269z" />
    <glyph glyph-name="Gcircumflex" unicode="&#x11c;" horiz-adv-x="587" 
d="M319 38c67 0 116 15 163 55v175h-155v43h202v-234c-57 -67 -137 -86 -211 -86c-160 0 -279 122 -279 316c0 195 123 316 285 316c72 0 136 -23 180 -59v-57c-52 48 -115 68 -180 68c-137 0 -233 -102 -233 -268s94 -269 228 -269zM346 786l92 -119h-47l-67 84l-67 -84
h-47l92 119h44z" />
    <glyph glyph-name="Gcommaaccent" unicode="&#x122;" horiz-adv-x="587" 
d="M287 -183l36 67c-16 3 -30 14 -30 34s16 35 37 35c20 0 35 -15 35 -37c0 -16 -7 -28 -14 -41l-31 -58h-33zM319 38c67 0 116 15 163 55v175h-155v43h202v-234c-57 -67 -137 -86 -211 -86c-160 0 -279 122 -279 316c0 195 123 316 285 316c72 0 136 -23 180 -59v-57
c-52 48 -115 68 -180 68c-137 0 -233 -102 -233 -268s94 -269 228 -269z" />
    <glyph glyph-name="Gdotaccent" unicode="&#x120;" horiz-adv-x="587" 
d="M357 714c0 -19 -15 -34 -34 -34s-34 15 -34 34s15 34 34 34s34 -15 34 -34zM319 38c67 0 116 15 163 55v175h-155v43h202v-234c-57 -67 -137 -86 -211 -86c-160 0 -279 122 -279 316c0 195 123 316 285 316c72 0 136 -23 180 -59v-57c-52 48 -115 68 -180 68
c-137 0 -233 -102 -233 -268s94 -269 228 -269z" />
    <glyph glyph-name="Hbar" unicode="&#x126;" horiz-adv-x="675" 
d="M34 438v44h58v132h51v-132h389v132h51v-132h58v-44h-58v-438h-51v260h-389v-260h-51v438h-58zM143 304h389v134h-389v-134z" />
    <glyph glyph-name="Hcircumflex" unicode="&#x124;" horiz-adv-x="649" 
d="M519 614h51v-614h-51v293h-389v-293h-51v614h51v-274h389v274zM347 786l92 -119h-47l-67 84l-67 -84h-47l92 119h44z" />
    <glyph glyph-name="Ibreve" unicode="&#x12c;" horiz-adv-x="209" 
d="M130 614v-614h-51v614h51zM104 664c-60 0 -103 41 -103 117h40c0 -51 26 -79 63 -79c36 0 63 28 63 79h39c0 -76 -42 -117 -102 -117z" />
    <glyph glyph-name="Idotaccent" unicode="&#x130;" horiz-adv-x="209" 
d="M130 614v-614h-51v614h51zM138 714c0 -19 -15 -34 -34 -34s-34 15 -34 34s15 34 34 34s34 -15 34 -34z" />
    <glyph glyph-name="Imacron" unicode="&#x12a;" horiz-adv-x="209" 
d="M130 614v-614h-51v614h51zM4 670v42h201v-42h-201z" />
    <glyph glyph-name="Iogonek" unicode="&#x12e;" horiz-adv-x="209" 
d="M130 614v-614c-41 -70 -50 -91 -50 -117c0 -19 10 -28 25 -28c14 0 24 5 37 14v-36c-13 -9 -27 -15 -45 -15c-34 0 -57 20 -57 60c0 32 16 63 50 122h-11v614h51z" />
    <glyph glyph-name="Itilde" unicode="&#x128;" horiz-adv-x="209" 
d="M130 614v-614h-51v614h51zM195 769h35c0 -63 -24 -104 -69 -104c-51 0 -73 64 -110 64c-24 0 -36 -24 -36 -61h-36c0 62 24 104 69 104c52 0 73 -64 110 -64c24 0 36 24 37 61z" />
    <glyph glyph-name="IJ" unicode="&#x132;" horiz-adv-x="563" 
d="M130 614v-614h-51v614h51zM213 29v54c39 -30 73 -44 116 -44c79 0 116 46 116 158v417h51v-419c0 -141 -60 -204 -167 -204c-50 0 -91 19 -116 38z" />
    <glyph glyph-name="Jcircumflex" unicode="&#x134;" horiz-adv-x="377" 
d="M27 29v54c39 -30 73 -44 116 -44c79 0 116 46 116 158v417h51v-419c0 -141 -60 -204 -167 -204c-50 0 -91 19 -116 38zM307 786l92 -119h-47l-67 84l-67 -84h-47l92 119h44z" />
    <glyph glyph-name="Kcommaaccent" unicode="&#x136;" horiz-adv-x="534" 
d="M214 -183l36 67c-16 3 -30 14 -30 34s16 35 37 35c20 0 35 -15 35 -37c0 -16 -7 -28 -14 -41l-31 -58h-33zM130 614v-280l310 280h67l-328 -295l336 -319h-67l-318 298v-298h-51v614h51z" />
    <glyph glyph-name="Lacute" unicode="&#x139;" horiz-adv-x="503" 
d="M136 665h-50l82 117h56zM79 0v614h51v-567h333v-47h-384z" />
    <glyph glyph-name="Lcaron" unicode="&#x13d;" horiz-adv-x="503" 
d="M302 454h-41l33 160h40zM79 0v614h51v-567h333v-47h-384z" />
    <glyph glyph-name="Lcommaaccent" unicode="&#x13b;" horiz-adv-x="503" 
d="M237 -183l36 67c-16 3 -30 14 -30 34s16 35 37 35c20 0 35 -15 35 -37c0 -16 -7 -28 -14 -41l-31 -58h-33zM79 0v614h51v-567h333v-47h-384z" />
    <glyph glyph-name="Ldot" unicode="&#x13f;" horiz-adv-x="503" 
d="M79 0v614h51v-567h333v-47h-384zM394 307c0 -19 -15 -34 -34 -34s-34 15 -34 34c0 18 15 34 34 34s34 -16 34 -34z" />
    <glyph glyph-name="Nacute" unicode="&#x143;" horiz-adv-x="616" 
d="M328 665h-50l82 117h56zM537 614v-614h-34l-375 533v-533h-49v614h49l360 -512v512h49z" />
    <glyph glyph-name="Ncaron" unicode="&#x147;" horiz-adv-x="616" 
d="M286 660l-92 119h47l67 -83l67 83h47l-92 -119h-44zM537 614v-614h-34l-375 533v-533h-49v614h49l360 -512v512h49z" />
    <glyph glyph-name="Ncommaaccent" unicode="&#x145;" horiz-adv-x="616" 
d="M270 -183l36 67c-16 3 -30 14 -30 34s16 35 37 35c20 0 35 -15 35 -37c0 -16 -7 -28 -14 -41l-31 -58h-33zM537 614v-614h-34l-375 533v-533h-49v614h49l360 -512v512h49z" />
    <glyph glyph-name="Eng" unicode="&#x14a;" horiz-adv-x="616" 
d="M262 -149v53c36 -28 68 -39 108 -39c79 0 118 44 118 156l-360 512v-533h-49v614h49l360 -512v512h49v-593c0 -141 -60 -204 -166 -204c-47 0 -85 17 -109 34z" />
    <glyph glyph-name="Obreve" unicode="&#x14e;" horiz-adv-x="620" 
d="M310 664c-60 0 -103 41 -103 117h40c0 -51 26 -79 63 -79c36 0 63 28 63 79h39c0 -76 -42 -117 -102 -117zM582 307c0 -188 -115 -316 -272 -316c-156 0 -271 128 -271 316s115 316 271 316c157 0 272 -128 272 -316zM530 307c0 158 -89 268 -220 268
c-130 0 -219 -110 -219 -268s89 -268 219 -268c131 0 220 110 220 268z" />
    <glyph glyph-name="Ohungarumlaut" unicode="&#x150;" horiz-adv-x="620" 
d="M582 307c0 -188 -115 -316 -272 -316c-156 0 -271 128 -271 316s115 316 271 316c157 0 272 -128 272 -316zM530 307c0 158 -89 268 -220 268c-130 0 -219 -110 -219 -268s89 -268 219 -268c131 0 220 110 220 268zM279 665h-45l74 117h46zM391 665h-46l74 117h46z" />
    <glyph glyph-name="Omacron" unicode="&#x14c;" horiz-adv-x="620" 
d="M210 670v42h201v-42h-201zM582 307c0 -188 -115 -316 -272 -316c-156 0 -271 128 -271 316s115 316 271 316c157 0 272 -128 272 -316zM530 307c0 158 -89 268 -220 268c-130 0 -219 -110 -219 -268s89 -268 219 -268c131 0 220 110 220 268z" />
    <glyph glyph-name="Oslashacute" unicode="&#x1fe;" horiz-adv-x="630" 
d="M50 7l64 79c-44 55 -70 131 -70 221c0 188 115 316 271 316c69 0 131 -25 177 -69l52 64l32 -24l-57 -70c43 -55 68 -130 68 -217c0 -188 -115 -316 -272 -316c-68 0 -127 24 -173 66l-60 -74zM96 307c0 -73 18 -135 50 -181l315 390c-37 37 -87 59 -146 59
c-130 0 -219 -110 -219 -268zM535 307c0 70 -17 131 -48 177l-315 -389c37 -36 85 -56 143 -56c131 0 220 110 220 268zM335 665h-50l82 117h56z" />
    <glyph glyph-name="Racute" unicode="&#x154;" horiz-adv-x="549" 
d="M276 271h-146v-271h-51v614h212c120 0 198 -60 198 -172c0 -99 -61 -156 -157 -169l186 -273h-59zM130 568v-252h159c94 0 150 47 150 126c0 81 -56 126 -150 126h-159zM284 665h-50l82 117h56z" />
    <glyph glyph-name="Rcaron" unicode="&#x158;" horiz-adv-x="549" 
d="M276 271h-146v-271h-51v614h212c120 0 198 -60 198 -172c0 -99 -61 -156 -157 -169l186 -273h-59zM130 568v-252h159c94 0 150 47 150 126c0 81 -56 126 -150 126h-159zM242 660l-92 119h47l67 -83l67 83h47l-92 -119h-44z" />
    <glyph glyph-name="Rcommaaccent" unicode="&#x156;" horiz-adv-x="549" 
d="M276 271h-146v-271h-51v614h212c120 0 198 -60 198 -172c0 -99 -61 -156 -157 -169l186 -273h-59zM130 568v-252h159c94 0 150 47 150 126c0 81 -56 126 -150 126h-159zM227 -183l36 67c-16 3 -30 14 -30 34s16 35 37 35c20 0 35 -15 35 -37c0 -16 -7 -28 -14 -41
l-31 -58h-33z" />
    <glyph glyph-name="Sacute" unicode="&#x15a;" horiz-adv-x="466" 
d="M39 52v59c59 -53 119 -73 190 -73c88 0 144 44 144 115c0 62 -35 87 -110 119l-90 38c-64 27 -133 64 -133 157c0 104 87 156 186 156c64 0 127 -19 172 -52v-57c-48 40 -102 62 -171 62c-76 0 -137 -36 -137 -108c0 -60 42 -86 107 -112l95 -40c90 -39 131 -83 131 -162
c0 -98 -82 -163 -194 -163c-82 0 -150 26 -190 61zM256 665h-50l82 117h56z" />
    <glyph glyph-name="Scedilla" unicode="&#x15e;" horiz-adv-x="466" 
d="M39 52v59c59 -53 119 -73 190 -73c88 0 144 44 144 115c0 62 -35 87 -110 119l-90 38c-64 27 -133 64 -133 157c0 104 87 156 186 156c64 0 127 -19 172 -52v-57c-48 40 -102 62 -171 62c-76 0 -137 -36 -137 -108c0 -60 42 -86 107 -112l95 -40c90 -39 131 -83 131 -162
c0 -98 -82 -163 -194 -163c-82 0 -150 26 -190 61zM197 -175h-46l59 127h48z" />
    <glyph glyph-name="Scircumflex" unicode="&#x15c;" horiz-adv-x="466" 
d="M39 52v59c59 -53 119 -73 190 -73c88 0 144 44 144 115c0 62 -35 87 -110 119l-90 38c-64 27 -133 64 -133 157c0 104 87 156 186 156c64 0 127 -19 172 -52v-57c-48 40 -102 62 -171 62c-76 0 -137 -36 -137 -108c0 -60 42 -86 107 -112l95 -40c90 -39 131 -83 131 -162
c0 -98 -82 -163 -194 -163c-82 0 -150 26 -190 61zM258 786l92 -119h-47l-67 84l-67 -84h-47l92 119h44z" />
    <glyph glyph-name="Scommaaccent" unicode="&#x218;" horiz-adv-x="466" 
d="M195 -183l36 67c-16 3 -30 14 -30 34s16 35 37 35c20 0 35 -15 35 -37c0 -16 -7 -28 -14 -41l-31 -58h-33zM39 52v59c59 -53 119 -73 190 -73c88 0 144 44 144 115c0 62 -35 87 -110 119l-90 38c-64 27 -133 64 -133 157c0 104 87 156 186 156c64 0 127 -19 172 -52v-57
c-48 40 -102 62 -171 62c-76 0 -137 -36 -137 -108c0 -60 42 -86 107 -112l95 -40c90 -39 131 -83 131 -162c0 -98 -82 -163 -194 -163c-82 0 -150 26 -190 61z" />
    <glyph glyph-name="Tbar" unicode="&#x166;" horiz-adv-x="562" 
d="M31 567v47h500v-47h-225v-227h117v-45h-117v-295h-51v295h-117v45h117v227h-224z" />
    <glyph glyph-name="Tcaron" unicode="&#x164;" horiz-adv-x="562" 
d="M259 660l-92 119h47l67 -83l67 83h47l-92 -119h-44zM31 567v47h500v-47h-225v-567h-51v567h-224z" />
    <glyph glyph-name="Ubreve" unicode="&#x16c;" horiz-adv-x="605" 
d="M303 664c-60 0 -103 41 -103 117h40c0 -51 26 -79 63 -79c36 0 63 28 63 79h39c0 -76 -42 -117 -102 -117zM302 -9c-132 0 -235 82 -235 251v372h51v-365c0 -144 78 -211 184 -211s185 67 185 211v365h51v-372c0 -169 -104 -251 -236 -251z" />
    <glyph glyph-name="Uhungarumlaut" unicode="&#x170;" horiz-adv-x="605" 
d="M302 -9c-132 0 -235 82 -235 251v372h51v-365c0 -144 78 -211 184 -211s185 67 185 211v365h51v-372c0 -169 -104 -251 -236 -251zM272 665h-45l74 117h46zM384 665h-46l74 117h46z" />
    <glyph glyph-name="Umacron" unicode="&#x16a;" horiz-adv-x="605" 
d="M203 670v42h201v-42h-201zM302 -9c-132 0 -235 82 -235 251v372h51v-365c0 -144 78 -211 184 -211s185 67 185 211v365h51v-372c0 -169 -104 -251 -236 -251z" />
    <glyph glyph-name="Uogonek" unicode="&#x172;" horiz-adv-x="605" 
d="M302 -9c-132 0 -235 82 -235 251v372h51v-365c0 -144 78 -211 184 -211s185 67 185 211v365h51v-372c0 -112 -44 -174 -110 -221c-69 -50 -90 -98 -90 -136c0 -19 10 -30 24 -30c15 0 24 5 37 14v-36c-13 -9 -27 -15 -44 -15c-34 0 -58 22 -58 61c0 37 19 80 61 119
c-16 -4 -39 -7 -56 -7z" />
    <glyph glyph-name="Uring" unicode="&#x16e;" horiz-adv-x="605" 
d="M302 -9c-132 0 -235 82 -235 251v372h51v-365c0 -144 78 -211 184 -211s185 67 185 211v365h51v-372c0 -169 -104 -251 -236 -251zM384 728c0 -45 -36 -80 -81 -80s-81 35 -81 80c0 46 36 81 81 81s81 -35 81 -81zM352 728c0 28 -22 50 -49 50s-49 -22 -49 -50
c0 -27 22 -49 49 -49s49 22 49 49z" />
    <glyph glyph-name="Utilde" unicode="&#x168;" horiz-adv-x="605" 
d="M393 769h35c0 -63 -24 -104 -69 -104c-51 0 -73 64 -110 64c-24 0 -36 -24 -36 -61h-36c0 62 24 104 69 104c52 0 73 -64 110 -64c24 0 36 24 37 61zM302 -9c-132 0 -235 82 -235 251v372h51v-365c0 -144 78 -211 184 -211s185 67 185 211v365h51v-372
c0 -169 -104 -251 -236 -251z" />
    <glyph glyph-name="Wacute" unicode="&#x1e82;" horiz-adv-x="759" 
d="M401 665h-50l82 117h56zM359 614h42l144 -528l142 528h50l-167 -614h-46l-145 523l-144 -523h-45l-168 614h51l142 -528z" />
    <glyph glyph-name="Wcircumflex" unicode="&#x174;" horiz-adv-x="759" 
d="M359 614h42l144 -528l142 528h50l-167 -614h-46l-145 523l-144 -523h-45l-168 614h51l142 -528zM401 786l92 -119h-47l-67 84l-67 -84h-47l92 119h44z" />
    <glyph glyph-name="Wgrave" unicode="&#x1e80;" horiz-adv-x="759" 
d="M405 665h-51l-87 117h55zM359 614h42l144 -528l142 528h50l-167 -614h-46l-145 523l-144 -523h-45l-168 614h51l142 -528z" />
    <glyph glyph-name="Wdieresis" unicode="&#x1e84;" horiz-adv-x="759" 
d="M284 715c0 19 14 33 33 33c18 0 32 -14 32 -33c0 -18 -14 -33 -32 -33c-19 0 -33 15 -33 33zM409 715c0 19 14 33 32 33s33 -14 33 -33c0 -18 -15 -33 -33 -33s-32 15 -32 33zM359 614h42l144 -528l142 528h50l-167 -614h-46l-145 523l-144 -523h-45l-168 614h51
l142 -528z" />
    <glyph glyph-name="Ycircumflex" unicode="&#x176;" horiz-adv-x="535" 
d="M269 309l193 305h55l-224 -352v-262h-51v262l-223 352h56zM289 786l92 -119h-47l-67 84l-67 -84h-47l92 119h44z" />
    <glyph glyph-name="Ygrave" unicode="&#x1ef2;" horiz-adv-x="535" 
d="M269 309l193 305h55l-224 -352v-262h-51v262l-223 352h56zM294 665h-51l-87 117h55z" />
    <glyph glyph-name="Zacute" unicode="&#x179;" horiz-adv-x="517" 
d="M483 47v-47h-455v4l375 563h-359v47h442v-4l-374 -563h371zM288 665h-50l82 117h56z" />
    <glyph glyph-name="Zdotaccent" unicode="&#x17b;" horiz-adv-x="517" 
d="M302 714c0 -19 -15 -34 -34 -34s-34 15 -34 34s15 34 34 34s34 -15 34 -34zM483 47v-47h-455v4l375 563h-359v47h442v-4l-374 -563h371z" />
    <glyph glyph-name="abreve" unicode="&#x103;" horiz-adv-x="435" 
d="M321 219v89c0 60 -42 99 -110 99c-51 0 -93 -15 -129 -39v48c30 20 79 37 134 37c94 0 153 -54 153 -142v-311h-48v42c-19 -23 -68 -49 -123 -49c-90 0 -164 52 -164 137c0 82 74 136 166 136c53 0 101 -25 121 -47zM321 101v57c-14 38 -64 66 -118 66
c-63 0 -121 -31 -121 -94s58 -95 121 -95c54 0 104 28 118 66zM222 506c-59 0 -102 42 -102 120h40c0 -52 25 -83 62 -83s62 31 62 83h40c0 -78 -43 -120 -102 -120z" />
    <glyph glyph-name="amacron" unicode="&#x101;" horiz-adv-x="435" 
d="M321 219v89c0 60 -42 99 -110 99c-51 0 -93 -15 -129 -39v48c30 20 79 37 134 37c94 0 153 -54 153 -142v-311h-48v42c-19 -23 -68 -49 -123 -49c-90 0 -164 52 -164 137c0 82 74 136 166 136c53 0 101 -25 121 -47zM321 101v57c-14 38 -64 66 -118 66
c-63 0 -121 -31 -121 -94s58 -95 121 -95c54 0 104 28 118 66zM122 537v41h201v-41h-201z" />
    <glyph glyph-name="aogonek" unicode="&#x105;" horiz-adv-x="435" 
d="M321 101v57c-14 38 -64 66 -118 66c-63 0 -121 -31 -121 -94s58 -95 121 -95c54 0 104 28 118 66zM329 0h-8v42c-19 -23 -68 -49 -123 -49c-90 0 -164 52 -164 137c0 82 74 136 166 136c53 0 101 -25 121 -47v89c0 60 -42 99 -110 99c-51 0 -93 -15 -129 -39v48
c30 20 79 37 134 37c94 0 153 -54 153 -142v-311c-41 -70 -50 -91 -50 -117c0 -19 11 -28 25 -28s24 5 37 14v-36c-13 -9 -27 -15 -44 -15c-34 0 -58 20 -58 60c0 32 16 63 50 122z" />
    <glyph glyph-name="aringacute" unicode="&#x1fb;" horiz-adv-x="435" 
d="M305 550c0 -39 -37 -70 -84 -70c-46 0 -84 31 -84 70c0 40 38 71 84 71c47 0 84 -31 84 -71zM272 550c0 24 -22 41 -51 41c-28 0 -51 -17 -51 -41s23 -41 51 -41c29 0 51 17 51 41zM247 648h-48l58 84h53zM321 219v89c0 60 -42 99 -110 99c-51 0 -93 -15 -129 -39v48
c30 20 79 37 134 37c94 0 153 -54 153 -142v-311h-48v42c-19 -23 -68 -49 -123 -49c-90 0 -164 52 -164 137c0 82 74 136 166 136c53 0 101 -25 121 -47zM321 101v57c-14 38 -64 66 -118 66c-63 0 -121 -31 -121 -94s58 -95 121 -95c54 0 104 28 118 66z" />
    <glyph glyph-name="aeacute" unicode="&#x1fd;" horiz-adv-x="723" 
d="M385 520h-49l83 130h53zM524 -9c-82 0 -143 40 -175 106c-28 -52 -80 -104 -163 -104c-87 0 -152 51 -152 131c0 83 75 134 167 134h121v38c0 69 -43 111 -111 111c-51 0 -93 -15 -129 -39v48c30 20 79 37 134 37c76 0 126 -43 140 -99c30 59 81 99 153 99
c117 0 177 -89 177 -218v-18h-319c2 -123 71 -182 161 -182c50 0 87 12 126 44v-49c-34 -27 -78 -39 -130 -39zM188 35c70 0 116 47 134 103v79h-119c-63 0 -121 -29 -121 -91c0 -61 48 -91 106 -91zM509 409c-74 0 -130 -57 -140 -151h268c-3 78 -39 151 -128 151z" />
    <glyph glyph-name="cacute" unicode="&#x107;" horiz-adv-x="402" 
d="M264 520h-49l83 130h53zM39 222c0 140 88 231 207 231c43 0 87 -12 118 -39v-51c-35 32 -72 45 -116 45c-88 0 -159 -69 -159 -186s71 -186 159 -186c44 0 81 13 116 45v-51c-31 -27 -75 -39 -118 -39c-119 0 -207 91 -207 231z" />
    <glyph glyph-name="ccaron" unicode="&#x10d;" horiz-adv-x="402" 
d="M356 645l-92 -130h-44l-92 130h46l68 -95l68 95h46zM39 222c0 140 88 231 207 231c43 0 87 -12 118 -39v-51c-35 32 -72 45 -116 45c-88 0 -159 -69 -159 -186s71 -186 159 -186c44 0 81 13 116 45v-51c-31 -27 -75 -39 -118 -39c-119 0 -207 91 -207 231z" />
    <glyph glyph-name="ccircumflex" unicode="&#x109;" horiz-adv-x="402" 
d="M262 644l92 -131h-46l-68 97l-68 -97h-46l92 131h44zM39 222c0 140 88 231 207 231c43 0 87 -12 118 -39v-51c-35 32 -72 45 -116 45c-88 0 -159 -69 -159 -186s71 -186 159 -186c44 0 81 13 116 45v-51c-31 -27 -75 -39 -118 -39c-119 0 -207 91 -207 231z" />
    <glyph glyph-name="cdotaccent" unicode="&#x10b;" horiz-adv-x="402" 
d="M39 222c0 140 88 231 207 231c43 0 87 -12 118 -39v-51c-35 32 -72 45 -116 45c-88 0 -159 -69 -159 -186s71 -186 159 -186c44 0 81 13 116 45v-51c-31 -27 -75 -39 -118 -39c-119 0 -207 91 -207 231zM276 579c0 -19 -15 -34 -34 -34s-34 15 -34 34c0 18 15 34 34 34
s34 -16 34 -34z" />
    <glyph glyph-name="dcaron" unicode="&#x10f;" horiz-adv-x="492" 
d="M518 490h-41l33 160h40zM371 0v66c-25 -38 -77 -75 -138 -75c-131 0 -194 108 -194 231s63 231 194 231c61 0 113 -37 138 -75v272h49v-650h-49zM371 125v194c-30 57 -80 88 -134 88c-93 0 -148 -78 -148 -185s55 -185 148 -185c54 0 104 31 134 88z" />
    <glyph glyph-name="dcroat" unicode="&#x111;" horiz-adv-x="492" 
d="M256 520v37h115v93h49v-93h53v-37h-53v-520h-49v66c-25 -38 -77 -75 -138 -75c-131 0 -194 108 -194 231s63 231 194 231c61 0 113 -37 138 -75v142h-115zM371 125v194c-30 57 -80 88 -134 88c-93 0 -148 -78 -148 -185s55 -185 148 -185c54 0 104 31 134 88z" />
    <glyph glyph-name="ebreve" unicode="&#x115;" horiz-adv-x="444" 
d="M88 218c0 -120 70 -183 162 -183c50 0 87 12 125 44v-49c-33 -27 -77 -39 -129 -39c-124 0 -207 88 -207 227c0 137 74 235 192 235c116 0 176 -88 176 -217v-18h-319zM231 409c-73 0 -129 -54 -141 -150h269c-3 78 -40 150 -128 150zM234 506c-59 0 -102 42 -102 120h40
c0 -52 25 -83 62 -83s62 31 62 83h40c0 -78 -43 -120 -102 -120z" />
    <glyph glyph-name="ecaron" unicode="&#x11b;" horiz-adv-x="444" 
d="M88 218c0 -120 70 -183 162 -183c50 0 87 12 125 44v-49c-33 -27 -77 -39 -129 -39c-124 0 -207 88 -207 227c0 137 74 235 192 235c116 0 176 -88 176 -217v-18h-319zM231 409c-73 0 -129 -54 -141 -150h269c-3 78 -40 150 -128 150zM348 645l-92 -130h-44l-92 130h46
l68 -95l68 95h46z" />
    <glyph glyph-name="edotaccent" unicode="&#x117;" horiz-adv-x="444" 
d="M88 218c0 -120 70 -183 162 -183c50 0 87 12 125 44v-49c-33 -27 -77 -39 -129 -39c-124 0 -207 88 -207 227c0 137 74 235 192 235c116 0 176 -88 176 -217v-18h-319zM231 409c-73 0 -129 -54 -141 -150h269c-3 78 -40 150 -128 150zM268 579c0 -19 -15 -34 -34 -34
s-34 15 -34 34c0 18 15 34 34 34s34 -16 34 -34z" />
    <glyph glyph-name="emacron" unicode="&#x113;" horiz-adv-x="444" 
d="M88 218c0 -120 70 -183 162 -183c50 0 87 12 125 44v-49c-33 -27 -77 -39 -129 -39c-124 0 -207 88 -207 227c0 137 74 235 192 235c116 0 176 -88 176 -217v-18h-319zM231 409c-73 0 -129 -54 -141 -150h269c-3 78 -40 150 -128 150zM134 537v41h201v-41h-201z" />
    <glyph glyph-name="eogonek" unicode="&#x119;" horiz-adv-x="444" 
d="M222 -122c0 42 23 81 62 119c-11 -3 -26 -6 -38 -6c-124 0 -207 88 -207 227c0 137 74 235 192 235c116 0 176 -88 176 -217v-18h-319c1 -122 71 -183 162 -183c50 0 87 12 125 44v-49c-12 -8 -24 -15 -43 -28c-36 -28 -69 -76 -69 -117c0 -21 10 -30 24 -30s24 5 37 14
v-36c-13 -9 -27 -15 -44 -15c-33 0 -58 20 -58 60zM231 409c-74 0 -128 -55 -141 -150h269c-3 78 -40 150 -128 150z" />
    <glyph glyph-name="gbreve" unicode="&#x11f;" horiz-adv-x="488" 
d="M367 29v45c-25 -37 -76 -73 -137 -73c-129 0 -191 107 -191 226s62 226 191 226c61 0 112 -36 137 -74v65h49v-412c0 -147 -98 -211 -204 -211c-56 0 -106 17 -139 42v57c44 -40 91 -54 139 -54c87 0 155 52 155 163zM367 132v189c-29 55 -79 86 -132 86
c-92 0 -146 -75 -146 -180c0 -106 54 -181 146 -181c53 0 103 32 132 86zM250 506c-59 0 -102 42 -102 120h40c0 -52 25 -83 62 -83s62 31 62 83h40c0 -78 -43 -120 -102 -120z" />
    <glyph glyph-name="gcircumflex" unicode="&#x11d;" horiz-adv-x="488" 
d="M272 644l92 -131h-46l-68 97l-68 -97h-46l92 131h44zM367 29v45c-25 -37 -76 -73 -137 -73c-129 0 -191 107 -191 226s62 226 191 226c61 0 112 -36 137 -74v65h49v-412c0 -147 -98 -211 -204 -211c-56 0 -106 17 -139 42v57c44 -40 91 -54 139 -54c87 0 155 52 155 163z
M367 132v189c-29 55 -79 86 -132 86c-92 0 -146 -75 -146 -180c0 -106 54 -181 146 -181c53 0 103 32 132 86z" />
    <glyph glyph-name="gcommaaccent" unicode="&#x123;" horiz-adv-x="488" 
d="M288 663l-36 -68c16 -3 29 -15 29 -34c0 -20 -16 -36 -36 -36c-21 0 -37 16 -37 37c0 17 7 29 15 42l31 59h34zM367 29v45c-25 -37 -76 -73 -137 -73c-129 0 -191 107 -191 226s62 226 191 226c61 0 112 -36 137 -74v65h49v-412c0 -147 -98 -211 -204 -211
c-56 0 -106 17 -139 42v57c44 -40 91 -54 139 -54c87 0 155 52 155 163zM367 132v189c-29 55 -79 86 -132 86c-92 0 -146 -75 -146 -180c0 -106 54 -181 146 -181c53 0 103 32 132 86z" />
    <glyph glyph-name="gdotaccent" unicode="&#x121;" horiz-adv-x="488" 
d="M367 29v45c-25 -37 -76 -73 -137 -73c-129 0 -191 107 -191 226s62 226 191 226c61 0 112 -36 137 -74v65h49v-412c0 -147 -98 -211 -204 -211c-56 0 -106 17 -139 42v57c44 -40 91 -54 139 -54c87 0 155 52 155 163zM367 132v189c-29 55 -79 86 -132 86
c-92 0 -146 -75 -146 -180c0 -106 54 -181 146 -181c53 0 103 32 132 86zM284 579c0 -19 -15 -34 -34 -34s-34 15 -34 34c0 18 15 34 34 34s34 -16 34 -34z" />
    <glyph glyph-name="hbar" unicode="&#x127;" horiz-adv-x="483" 
d="M19 520v37h52v93h50v-93h115v-37h-115v-147c27 42 79 80 142 80c101 0 154 -65 154 -159v-294h-49v287c0 69 -35 120 -114 120c-61 0 -111 -43 -133 -96v-311h-50v520h-52z" />
    <glyph glyph-name="hcircumflex" unicode="&#x125;" horiz-adv-x="483" 
d="M71 0v650h50v-277c27 42 79 80 142 80c101 0 154 -65 154 -159v-294h-49v287c0 69 -35 120 -114 120c-61 0 -111 -43 -133 -96v-311h-50zM266 791l92 -119h-47l-67 84l-67 -84h-47l92 119h44z" />
    <glyph glyph-name="ibreve" unicode="&#x12d;" horiz-adv-x="192" 
d="M97 506c-53 0 -90 42 -90 120h38c0 -52 19 -83 52 -83c32 0 52 31 52 83h38c0 -78 -38 -120 -90 -120zM121 444v-444h-50v444h50z" />
    <glyph glyph-name="imacron" unicode="&#x12b;" horiz-adv-x="192" 
d="M121 444v-444h-50v444h50zM19 537v41h157v-41h-157z" />
    <glyph glyph-name="iogonek" unicode="&#x12f;" horiz-adv-x="192" 
d="M121 444v-444c-41 -70 -50 -91 -50 -117c0 -19 10 -28 25 -28c14 0 23 5 37 14v-36c-14 -9 -27 -15 -45 -15c-34 0 -58 20 -58 60c0 32 16 63 51 122h-10v444h50zM130 579c0 -19 -15 -34 -34 -34s-34 15 -34 34c0 18 15 34 34 34s34 -16 34 -34z" />
    <glyph glyph-name="itilde" unicode="&#x129;" horiz-adv-x="192" 
d="M162 625h32c0 -63 -19 -105 -54 -105c-40 0 -59 64 -85 64c-18 0 -25 -23 -25 -61h-33c0 63 20 105 54 105c41 0 60 -64 85 -64c18 0 25 24 26 61zM121 444v-444h-50v444h50z" />
    <glyph glyph-name="ij" unicode="&#x133;" horiz-adv-x="384" 
d="M121 444v-444h-50v444h50zM130 579c0 -19 -15 -34 -34 -34s-34 15 -34 34c0 18 15 34 34 34s34 -16 34 -34zM313 444v-508c0 -76 -43 -115 -112 -115c-8 0 -18 1 -23 3v44c5 -2 12 -3 20 -3c41 0 65 16 65 76v503h50zM322 579c0 -19 -15 -34 -34 -34s-34 15 -34 34
c0 18 15 34 34 34s34 -16 34 -34z" />
    <glyph glyph-name="jcircumflex" unicode="&#x135;" horiz-adv-x="192" 
d="M118 644l72 -131h-44l-50 94l-50 -94h-44l72 131h44zM121 444v-508c0 -76 -43 -115 -112 -115c-8 0 -18 1 -23 3v44c5 -2 12 -3 20 -3c41 0 65 16 65 76v503h50z" />
    <glyph glyph-name="kcommaaccent" unicode="&#x137;" horiz-adv-x="425" 
d="M173 241l241 -241h-62l-231 228v-228h-50v650h50v-400l224 194h65zM174 -183l36 67c-16 3 -30 14 -30 34s16 35 37 35c20 0 35 -15 35 -37c0 -16 -7 -28 -14 -41l-31 -58h-33z" />
    <glyph glyph-name="kgreenlandic" unicode="&#x138;" horiz-adv-x="425" 
d="M173 241l241 -241h-62l-231 228v-228h-50v444h50v-194l224 194h65z" />
    <glyph glyph-name="lacute" unicode="&#x13a;" horiz-adv-x="192" 
d="M122 688h-50l82 117h56zM121 650v-650h-50v650h50z" />
    <glyph glyph-name="lcaron" unicode="&#x13e;" horiz-adv-x="192" 
d="M219 490h-41l33 160h40zM121 650v-650h-50v650h50z" />
    <glyph glyph-name="lcommaaccent" unicode="&#x13c;" horiz-adv-x="192" 
d="M54 -183l36 67c-16 3 -30 14 -30 34s16 35 37 35c20 0 35 -15 35 -37c0 -16 -7 -28 -14 -41l-31 -58h-33zM121 650v-650h-50v650h50z" />
    <glyph glyph-name="ldot" unicode="&#x140;" horiz-adv-x="297" 
d="M121 650v-650h-50v650h50zM278 325c0 -19 -15 -34 -34 -34s-34 15 -34 34c0 18 15 34 34 34s34 -16 34 -34z" />
    <glyph glyph-name="nacute" unicode="&#x144;" horiz-adv-x="483" 
d="M265 520h-49l83 130h53zM71 0v444h50v-71c27 42 79 80 142 80c101 0 154 -65 154 -159v-294h-49v287c0 69 -35 120 -114 120c-61 0 -111 -43 -133 -96v-311h-50z" />
    <glyph glyph-name="ncaron" unicode="&#x148;" horiz-adv-x="483" 
d="M360 645l-92 -130h-44l-92 130h46l68 -95l68 95h46zM71 0v444h50v-71c27 42 79 80 142 80c101 0 154 -65 154 -159v-294h-49v287c0 69 -35 120 -114 120c-61 0 -111 -43 -133 -96v-311h-50z" />
    <glyph glyph-name="ncommaaccent" unicode="&#x146;" horiz-adv-x="483" 
d="M209 -183l36 67c-16 3 -30 14 -30 34s16 35 37 35c20 0 35 -15 35 -37c0 -16 -7 -28 -14 -41l-31 -58h-33zM71 0v444h50v-71c27 42 79 80 142 80c101 0 154 -65 154 -159v-294h-49v287c0 69 -35 120 -114 120c-61 0 -111 -43 -133 -96v-311h-50z" />
    <glyph glyph-name="eng" unicode="&#x14b;" horiz-adv-x="483" 
d="M368 -59v346c0 69 -35 120 -114 120c-61 0 -111 -43 -133 -96v-311h-50v444h50v-71c27 42 79 80 142 80c101 0 154 -65 154 -159v-358c0 -76 -42 -115 -111 -115c-8 0 -18 1 -24 3v44c5 -2 13 -3 21 -3c41 0 65 16 65 76z" />
    <glyph glyph-name="obreve" unicode="&#x14f;" horiz-adv-x="471" 
d="M432 222c0 -137 -79 -231 -197 -231c-117 0 -196 94 -196 231s79 231 196 231c118 0 197 -94 197 -231zM382 222c0 112 -58 187 -147 187c-88 0 -146 -75 -146 -187s58 -187 146 -187c89 0 147 75 147 187zM235 506c-59 0 -102 42 -102 120h40c0 -52 25 -83 62 -83
s62 31 62 83h40c0 -78 -43 -120 -102 -120z" />
    <glyph glyph-name="ohungarumlaut" unicode="&#x151;" horiz-adv-x="471" 
d="M201 520h-45l74 130h45zM311 520h-45l74 130h45zM432 222c0 -137 -79 -231 -197 -231c-117 0 -196 94 -196 231s79 231 196 231c118 0 197 -94 197 -231zM382 222c0 112 -58 187 -147 187c-88 0 -146 -75 -146 -187s58 -187 146 -187c89 0 147 75 147 187z" />
    <glyph glyph-name="omacron" unicode="&#x14d;" horiz-adv-x="471" 
d="M135 537v41h201v-41h-201zM432 222c0 -137 -79 -231 -197 -231c-117 0 -196 94 -196 231s79 231 196 231c118 0 197 -94 197 -231zM382 222c0 112 -58 187 -147 187c-88 0 -146 -75 -146 -187s58 -187 146 -187c89 0 147 75 147 187z" />
    <glyph glyph-name="oslashacute" unicode="&#x1ff;" horiz-adv-x="481" 
d="M44 -1l49 62c-32 40 -49 96 -49 161c0 137 79 231 196 231c48 0 90 -16 123 -45l42 54l29 -21l-46 -59c31 -40 49 -95 49 -160c0 -137 -79 -231 -197 -231c-49 0 -90 16 -123 44l-44 -57zM93 222c0 -49 10 -91 30 -122l212 272c-25 24 -57 37 -95 37
c-88 0 -147 -75 -147 -187zM388 222c0 48 -11 90 -30 121l-212 -271c24 -24 56 -37 94 -37c89 0 148 75 148 187zM259 520h-49l83 130h53z" />
    <glyph glyph-name="racute" unicode="&#x155;" horiz-adv-x="301" 
d="M195 520h-49l83 130h53zM280 447v-49c-12 5 -25 8 -41 8c-54 0 -97 -39 -118 -96v-310h-50v444h50v-71c20 44 65 80 120 80c17 0 29 -3 39 -6z" />
    <glyph glyph-name="rcaron" unicode="&#x159;" horiz-adv-x="301" 
d="M289 645l-92 -130h-44l-92 130h46l68 -95l68 95h46zM280 447v-49c-12 5 -25 8 -41 8c-54 0 -97 -39 -118 -96v-310h-50v444h50v-71c20 44 65 80 120 80c17 0 29 -3 39 -6z" />
    <glyph glyph-name="rcommaaccent" unicode="&#x157;" horiz-adv-x="301" 
d="M52 -183l36 67c-16 3 -30 14 -30 34s16 35 37 35c20 0 35 -15 35 -37c0 -16 -7 -28 -14 -41l-31 -58h-33zM280 447v-49c-12 5 -25 8 -41 8c-54 0 -97 -39 -118 -96v-310h-50v444h50v-71c20 44 65 80 120 80c17 0 29 -3 39 -6z" />
    <glyph glyph-name="sacute" unicode="&#x15b;" horiz-adv-x="381" 
d="M214 520h-49l83 130h53zM41 35v54c39 -34 84 -54 142 -54c55 0 106 22 106 79c0 38 -25 61 -70 77l-74 27c-60 22 -103 50 -103 118c0 75 66 117 147 117c47 0 94 -14 130 -40v-54c-37 29 -75 50 -130 50c-53 0 -98 -25 -98 -72c0 -42 28 -58 76 -76l77 -29
c61 -21 94 -59 94 -116c0 -80 -70 -125 -156 -125c-59 0 -112 20 -141 44z" />
    <glyph glyph-name="scedilla" unicode="&#x15f;" horiz-adv-x="381" 
d="M41 35v54c39 -34 84 -54 142 -54c55 0 106 22 106 79c0 38 -25 61 -70 77l-74 27c-60 22 -103 50 -103 118c0 75 66 117 147 117c47 0 94 -14 130 -40v-54c-37 29 -75 50 -130 50c-53 0 -98 -25 -98 -72c0 -42 28 -58 76 -76l77 -29c61 -21 94 -59 94 -116
c0 -80 -70 -125 -156 -125c-59 0 -112 20 -141 44zM153 -175h-46l59 127h48z" />
    <glyph glyph-name="scircumflex" unicode="&#x15d;" horiz-adv-x="381" 
d="M217 644l92 -131h-46l-68 97l-68 -97h-46l92 131h44zM41 35v54c39 -34 84 -54 142 -54c55 0 106 22 106 79c0 38 -25 61 -70 77l-74 27c-60 22 -103 50 -103 118c0 75 66 117 147 117c47 0 94 -14 130 -40v-54c-37 29 -75 50 -130 50c-53 0 -98 -25 -98 -72
c0 -42 28 -58 76 -76l77 -29c61 -21 94 -59 94 -116c0 -80 -70 -125 -156 -125c-59 0 -112 20 -141 44z" />
    <glyph glyph-name="scommaaccent" unicode="&#x219;" horiz-adv-x="381" 
d="M143 -183l36 67c-16 3 -30 14 -30 34s16 35 37 35c20 0 35 -15 35 -37c0 -16 -7 -28 -14 -41l-31 -58h-33zM41 35v54c39 -34 84 -54 142 -54c55 0 106 22 106 79c0 38 -25 61 -70 77l-74 27c-60 22 -103 50 -103 118c0 75 66 117 147 117c47 0 94 -14 130 -40v-54
c-37 29 -75 50 -130 50c-53 0 -98 -25 -98 -72c0 -42 28 -58 76 -76l77 -29c61 -21 94 -59 94 -116c0 -80 -70 -125 -156 -125c-59 0 -112 20 -141 44z" />
    <glyph glyph-name="tbar" unicode="&#x167;" horiz-adv-x="292" 
d="M166 401v-119h82v-41h-82v-241h-50v241h-76v41h76v119h-95v43h95v114h50v-114h105v-43h-105z" />
    <glyph glyph-name="tcaron" unicode="&#x165;" horiz-adv-x="292" 
d="M261 500h-41l33 160h40zM166 401v-401h-50v401h-95v43h95v114h50v-114h105v-43h-105z" />
    <glyph glyph-name="ubreve" unicode="&#x16d;" horiz-adv-x="481" 
d="M410 444v-444h-49v71c-27 -42 -78 -80 -141 -80c-101 0 -154 65 -154 159v294h49v-287c0 -69 35 -120 114 -120c61 0 110 43 132 96v311h49zM239 506c-59 0 -102 42 -102 120h40c0 -52 25 -83 62 -83s62 31 62 83h40c0 -78 -43 -120 -102 -120z" />
    <glyph glyph-name="uhungarumlaut" unicode="&#x171;" horiz-adv-x="481" 
d="M410 444v-444h-49v71c-27 -42 -78 -80 -141 -80c-101 0 -154 65 -154 159v294h49v-287c0 -69 35 -120 114 -120c61 0 110 43 132 96v311h49zM204 520h-45l74 130h45zM314 520h-45l74 130h45z" />
    <glyph glyph-name="umacron" unicode="&#x16b;" horiz-adv-x="481" 
d="M410 444v-444h-49v71c-27 -42 -78 -80 -141 -80c-101 0 -154 65 -154 159v294h49v-287c0 -69 35 -120 114 -120c61 0 110 43 132 96v311h49zM139 537v41h201v-41h-201z" />
    <glyph glyph-name="uogonek" unicode="&#x173;" horiz-adv-x="481" 
d="M410 444v-444c-41 -70 -50 -91 -50 -117c0 -19 10 -28 25 -28c14 0 24 5 37 14v-36c-13 -9 -27 -15 -45 -15c-33 0 -57 20 -57 60c0 32 16 63 50 122h-9v71c-27 -42 -78 -80 -141 -80c-101 0 -154 65 -154 159v294h49v-287c0 -69 35 -120 114 -120c61 0 110 43 132 96
v311h49z" />
    <glyph glyph-name="uring" unicode="&#x16f;" horiz-adv-x="481" 
d="M320 580c0 -45 -36 -81 -81 -81s-81 36 -81 81s36 81 81 81s81 -36 81 -81zM288 580c0 28 -22 49 -49 49s-49 -21 -49 -49s22 -49 49 -49s49 21 49 49zM410 444v-444h-49v71c-27 -42 -78 -80 -141 -80c-101 0 -154 65 -154 159v294h49v-287c0 -69 35 -120 114 -120
c61 0 110 43 132 96v311h49z" />
    <glyph glyph-name="utilde" unicode="&#x169;" horiz-adv-x="481" 
d="M410 444v-444h-49v71c-27 -42 -78 -80 -141 -80c-101 0 -154 65 -154 159v294h49v-287c0 -69 35 -120 114 -120c61 0 110 43 132 96v311h49zM328 625h35c0 -63 -23 -105 -68 -105c-50 0 -73 65 -108 65c-23 0 -36 -24 -36 -62h-35c0 63 23 105 68 105
c51 0 73 -65 108 -65c23 0 36 25 36 62z" />
    <glyph glyph-name="wacute" unicode="&#x1e83;" horiz-adv-x="604" 
d="M322 520h-49l83 130h53zM323 444l106 -366l109 366h48l-134 -444h-43l-107 367l-107 -367h-43l-134 444h49l109 -366l106 366h41z" />
    <glyph glyph-name="wcircumflex" unicode="&#x175;" horiz-adv-x="604" 
d="M324 644l92 -131h-46l-68 97l-68 -97h-46l92 131h44zM323 444l106 -366l109 366h48l-134 -444h-43l-107 367l-107 -367h-43l-134 444h49l109 -366l106 366h41z" />
    <glyph glyph-name="wgrave" unicode="&#x1e81;" horiz-adv-x="604" 
d="M323 444l106 -366l109 366h48l-134 -444h-43l-107 367l-107 -367h-43l-134 444h49l109 -366l106 366h41zM329 520h-49l-87 130h53z" />
    <glyph glyph-name="wdieresis" unicode="&#x1e85;" horiz-adv-x="604" 
d="M207 571c0 18 14 32 33 32c18 0 32 -14 32 -32c0 -19 -14 -33 -32 -33c-19 0 -33 14 -33 33zM332 571c0 18 14 32 32 32s33 -14 33 -32c0 -19 -15 -33 -33 -33s-32 14 -32 33zM323 444l106 -366l109 366h48l-134 -444h-43l-107 367l-107 -367h-43l-134 444h49l109 -366
l106 366h41z" />
    <glyph glyph-name="ycircumflex" unicode="&#x177;" horiz-adv-x="432" 
d="M170 -170h-50l72 176l-174 438h53l146 -376l146 376h51zM238 644l92 -131h-46l-68 97l-68 -97h-46l92 131h44z" />
    <glyph glyph-name="ygrave" unicode="&#x1ef3;" horiz-adv-x="432" 
d="M170 -170h-50l72 176l-174 438h53l146 -376l146 376h51zM243 520h-49l-87 130h53z" />
    <glyph glyph-name="zacute" unicode="&#x17a;" horiz-adv-x="416" 
d="M228 520h-49l83 130h53zM377 43v-43h-342v4l265 397h-253v43h331v-4l-264 -397h263z" />
    <glyph glyph-name="zdotaccent" unicode="&#x17c;" horiz-adv-x="416" 
d="M377 43v-43h-342v4l265 397h-253v43h331v-4l-264 -397h263zM243 579c0 -19 -15 -34 -34 -34s-34 15 -34 34c0 18 15 34 34 34s34 -16 34 -34z" />
    <glyph glyph-name="caron.Slovak" 
d="M252 490h-41l33 160h40z" />
    <glyph glyph-name="cedilla.alt" 
d="M241 -175h-46l59 127h48z" />
    <glyph glyph-name="grave.cap" 
d="M319 665h-51l-87 117h55z" />
    <glyph glyph-name="acute.cap" 
d="M231 665h-50l82 117h56z" />
    <glyph glyph-name="circumflex.cap" 
d="M272 786l92 -119h-47l-67 84l-67 -84h-47l92 119h44z" />
    <glyph glyph-name="caron.cap" 
d="M228 660l-92 119h47l67 -83l67 83h47l-92 -119h-44z" />
    <glyph glyph-name="tilde.cap" 
d="M340 769h35c0 -63 -24 -104 -69 -104c-51 0 -73 64 -110 64c-24 0 -36 -24 -36 -61h-36c0 62 24 104 69 104c52 0 73 -64 110 -64c24 0 36 24 37 61z" />
    <glyph glyph-name="macron.cap" 
d="M149 670v42h201v-42h-201z" />
    <glyph glyph-name="breve.cap" 
d="M250 664c-60 0 -103 41 -103 117h40c0 -51 26 -79 63 -79c36 0 63 28 63 79h39c0 -76 -42 -117 -102 -117z" />
    <glyph glyph-name="dotaccent.cap" 
d="M284 714c0 -19 -15 -34 -34 -34s-34 15 -34 34s15 34 34 34s34 -15 34 -34z" />
    <glyph glyph-name="dieresis.cap" 
d="M155 715c0 19 14 33 33 33c18 0 32 -14 32 -33c0 -18 -14 -33 -32 -33c-19 0 -33 15 -33 33zM280 715c0 19 14 33 32 33s33 -14 33 -33c0 -18 -15 -33 -33 -33s-32 15 -32 33z" />
    <glyph glyph-name="ring.cap" 
d="M331 728c0 -45 -36 -80 -81 -80s-81 35 -81 80c0 46 36 81 81 81s81 -35 81 -81zM299 728c0 28 -22 50 -49 50s-49 -22 -49 -50c0 -27 22 -49 49 -49s49 22 49 49z" />
    <glyph glyph-name="hungarumlaut.cap" 
d="M179 665h-45l74 117h46zM291 665h-46l74 117h46z" />
    <glyph glyph-name="exclamdown.cap" horiz-adv-x="206" 
d="M65 579c0 21 17 38 38 38c20 0 37 -17 37 -38c0 -22 -17 -39 -37 -39c-21 0 -38 17 -38 39zM75 0l10 422h36l10 -422h-56z" />
    <glyph glyph-name="questiondown.cap" horiz-adv-x="415" 
d="M179 310c-37 -42 -92 -88 -92 -153c0 -72 45 -118 129 -118c71 0 132 43 175 91v-56c-38 -44 -104 -83 -177 -83c-112 0 -177 65 -177 166c0 73 56 127 104 179c32 35 42 57 43 85h48c-3 -46 -19 -72 -53 -111zM247 579c0 -22 -17 -39 -37 -39c-21 0 -38 17 -38 39
c0 21 17 38 38 38c20 0 37 -17 37 -38z" />
    <glyph glyph-name="guilsinglleft.cap" horiz-adv-x="192" 
d="M167 173h-50l-92 136l92 136h50l-92 -136z" />
    <glyph glyph-name="guilsinglright.cap" horiz-adv-x="192" 
d="M75 173h-50l92 136l-92 136h50l92 -136z" />
    <glyph glyph-name="guillemotleft.cap" horiz-adv-x="314" 
d="M166 173h-49l-92 136l92 136h49l-92 -136zM289 173h-49l-92 136l92 136h49l-92 -136z" />
    <glyph glyph-name="guillemotright.cap" horiz-adv-x="314" 
d="M197 173h-49l92 136l-92 136h49l92 -136zM74 173h-49l92 136l-92 136h49l92 -136z" />
    <glyph glyph-name="slash.cap" horiz-adv-x="306" 
d="M5 -64l248 734h48l-248 -734h-48z" />
    <glyph glyph-name="backslash.cap" horiz-adv-x="306" 
d="M53 670l248 -734h-48l-248 734h48z" />
    <glyph glyph-name="bar.cap" horiz-adv-x="205" 
d="M79 -64v734h47v-734h-47z" />
    <glyph glyph-name="periodcentered.cap" horiz-adv-x="151" 
d="M38 301c0 22 17 39 37 39c21 0 38 -17 38 -39c0 -21 -17 -38 -38 -38c-20 0 -37 17 -37 38z" />
    <glyph glyph-name="bullet.cap" horiz-adv-x="332" 
d="M295 300c0 -75 -57 -128 -129 -128c-71 0 -128 53 -128 128s57 128 128 128c72 0 129 -53 129 -128z" />
    <glyph glyph-name="hyphen.cap" horiz-adv-x="321" 
d="M40 277v46h241v-46h-241z" />
    <glyph glyph-name="endash.cap" horiz-adv-x="475" 
d="M40 279v41h395v-41h-395z" />
    <glyph glyph-name="emdash.cap" horiz-adv-x="846" 
d="M40 279v41h766v-41h-766z" />
    <glyph glyph-name="parenleft.cap" horiz-adv-x="325" 
d="M30 299c0 183 104 324 268 367v-50c-118 -29 -219 -146 -219 -317c0 -170 101 -288 219 -317v-50c-164 43 -268 184 -268 367z" />
    <glyph glyph-name="parenright.cap" horiz-adv-x="325" 
d="M295 299c0 -183 -104 -324 -268 -367v50c118 29 219 147 219 317c0 171 -101 288 -219 317v50c164 -43 268 -184 268 -367z" />
    <glyph glyph-name="bracketleft.cap" horiz-adv-x="311" 
d="M126 621v-644h158v-45h-205v734h205v-45h-158z" />
    <glyph glyph-name="bracketright.cap" horiz-adv-x="311" 
d="M185 -23v644h-158v45h205v-734h-205v45h158z" />
    <glyph glyph-name="braceleft.cap" horiz-adv-x="334" 
d="M152 229v-207c0 -30 15 -45 42 -45h113v-45h-112c-53 0 -91 38 -91 93v207c0 29 -14 45 -42 45h-42v45h42c28 0 42 15 42 45v206c0 56 38 93 91 93h112v-45h-113c-27 0 -42 -14 -42 -45v-207c0 -33 -17 -56 -40 -70c23 -14 40 -37 40 -70z" />
    <glyph glyph-name="braceright.cap" horiz-adv-x="334" 
d="M182 22v207c0 33 17 56 40 70c-23 14 -40 37 -40 70v207c0 31 -15 45 -42 45h-113v45h112c53 0 91 -37 91 -93v-206c0 -30 14 -45 42 -45h42v-45h-42c-28 0 -42 -16 -42 -45v-207c0 -55 -38 -93 -91 -93h-112v45h113c27 0 42 15 42 45z" />
    <glyph glyph-name="at.cap" horiz-adv-x="774" 
d="M548 472l-45 -255c-8 -47 14 -60 48 -60c80 0 144 72 144 203c0 148 -117 253 -285 253c-198 0 -330 -148 -330 -335c0 -215 167 -301 331 -301c86 0 160 21 210 45v-41c-50 -22 -125 -43 -210 -43c-191 0 -374 102 -374 340c0 207 150 376 373 376
c195 0 327 -127 327 -294c0 -162 -93 -242 -191 -242c-46 0 -83 23 -90 62c-23 -31 -65 -59 -109 -59c-85 0 -130 64 -130 146c0 108 72 213 181 213c49 0 83 -29 97 -57l9 49h44zM461 232l24 139c-14 38 -44 67 -85 67c-84 0 -137 -88 -137 -170c0 -65 35 -106 90 -106
c46 0 81 31 108 70z" />
    <glyph glyph-name="Euro.lt" horiz-adv-x="520" 
d="M36 225v41h58c-1 13 -2 27 -2 41c0 12 0 24 1 36h-57v41h62c25 149 124 239 246 239c60 0 105 -18 140 -46v-54c-43 39 -87 53 -140 53c-98 0 -173 -73 -195 -192h222l-10 -41h-218c-1 -12 -1 -24 -1 -36c0 -14 1 -28 2 -41h206l-10 -41h-190c23 -116 98 -187 194 -187
c53 0 97 16 140 54v-55c-35 -28 -80 -46 -140 -46c-120 0 -219 87 -245 234h-63z" />
    <glyph glyph-name="dollar.lt" horiz-adv-x="520" 
d="M235 -85v98c-64 5 -120 26 -154 56v57c54 -49 115 -67 178 -67c81 0 133 39 133 105c0 57 -32 80 -102 111l-84 35c-60 24 -125 59 -125 147s70 136 154 143v90h45v-90c50 -4 99 -20 135 -47v-55c-43 37 -94 57 -159 57c-71 0 -126 -31 -126 -98c0 -56 39 -79 98 -104
l90 -37c84 -36 122 -78 122 -152c0 -86 -67 -143 -160 -150v-99h-45z" />
    <glyph glyph-name="cent.lt" horiz-adv-x="520" 
d="M267 -84v87c-103 14 -177 101 -177 229s74 215 177 229v87h45v-86c38 -2 75 -14 103 -38v-51c-35 32 -72 45 -116 45c-87 0 -159 -69 -159 -186s72 -186 159 -186c44 0 81 13 116 45v-51c-28 -24 -65 -36 -103 -39v-85h-45z" />
    <glyph glyph-name="sterling.lt" horiz-adv-x="520" 
d="M59 281v42h89v86c0 130 69 214 194 214c43 0 84 -12 109 -29v-48c-28 18 -63 31 -109 31c-97 0 -145 -66 -145 -170v-84h169v-42h-169v-145c0 -35 -9 -71 -24 -91h293v-45h-407v45h65c15 23 24 47 24 91v145h-89z" />
    <glyph glyph-name="yen.lt" horiz-adv-x="520" 
d="M77 262v41h144l-188 311h56l172 -288l171 288h54l-189 -311h145v-41h-157v-77h157v-41h-157v-144h-51v144h-157v41h157v77h-157z" />
    <glyph glyph-name="florin.lt" horiz-adv-x="520" 
d="M168 295v42h80l27 151c14 80 60 135 135 135c22 0 42 -5 59 -12v-46c-18 9 -36 14 -58 14c-47 0 -77 -36 -88 -96l-26 -146h103v-42h-110l-60 -340c-14 -74 -47 -128 -123 -128c-22 0 -40 4 -57 12v46c18 -9 36 -14 57 -14c47 0 65 36 74 89l59 335h-72z" />
    <glyph glyph-name="zero.lt" horiz-adv-x="520" 
d="M260 -9c-135 0 -224 129 -224 316s89 316 224 316s224 -129 224 -316s-89 -316 -224 -316zM260 576c-109 0 -174 -111 -174 -269s65 -269 174 -269s174 111 174 269s-65 269 -174 269z" />
    <glyph glyph-name="one.lt" horiz-adv-x="520" 
d="M69 0v47h188v507l-182 -94v52l201 103h31v-568h163v-47h-401z" />
    <glyph glyph-name="two.lt" horiz-adv-x="520" 
d="M147 47h301v-47h-395v4l199 233c66 78 120 135 120 218c0 72 -45 121 -130 121c-71 0 -132 -40 -175 -85v55c41 43 105 77 177 77c112 0 177 -66 177 -167c0 -93 -60 -161 -133 -245z" />
    <glyph glyph-name="three.lt" horiz-adv-x="520" 
d="M60 567v47h378v-4l-186 -241c103 -7 190 -76 190 -186c0 -116 -96 -192 -212 -192c-78 0 -130 21 -171 51v59c46 -44 105 -64 169 -64c92 0 167 56 167 146c0 102 -96 159 -218 149v4l176 231h-293z" />
    <glyph glyph-name="four.lt" horiz-adv-x="520" 
d="M300 614l-193 -418h219v152h49v-152h113v-46h-113v-150h-49v150h-290v4l213 460h51z" />
    <glyph glyph-name="five.lt" horiz-adv-x="520" 
d="M235 377c122 0 220 -74 220 -192c0 -119 -98 -194 -221 -194c-76 0 -128 20 -170 50v60c46 -44 104 -64 168 -64c95 0 174 56 174 148c0 90 -79 147 -174 147c-65 0 -97 -14 -137 -30v312h325v-47h-280v-205c21 8 56 15 95 15z" />
    <glyph glyph-name="six.lt" horiz-adv-x="520" 
d="M259 -9c-114 0 -203 90 -203 207c0 44 11 85 45 146l154 270h53l-138 -240c22 17 57 29 91 29c115 0 202 -89 202 -205c0 -117 -88 -207 -204 -207zM416 198c0 90 -69 161 -157 161c-87 0 -155 -71 -155 -161c0 -91 68 -161 155 -161c88 0 157 70 157 161z" />
    <glyph glyph-name="seven.lt" horiz-adv-x="520" 
d="M483 610l-279 -610h-51l260 567h-361v47h431v-4z" />
    <glyph glyph-name="eight.lt" horiz-adv-x="520" 
d="M260 35c95 0 162 59 162 135s-67 135 -162 135c-94 0 -161 -59 -161 -135s67 -135 161 -135zM260 349c81 0 136 51 136 115c0 65 -55 115 -136 115c-79 0 -136 -50 -136 -115c0 -64 57 -115 136 -115zM260 -9c-121 0 -210 75 -210 177c0 77 53 139 129 159
c-62 22 -103 75 -103 138c0 90 77 158 184 158c108 0 185 -68 185 -158c0 -63 -41 -116 -104 -138c77 -20 130 -82 130 -159c0 -102 -89 -177 -211 -177z" />
    <glyph glyph-name="nine.lt" horiz-adv-x="520" 
d="M260 623c114 0 203 -90 203 -207c0 -44 -11 -85 -45 -146l-154 -270h-53l138 240c-22 -17 -57 -29 -91 -29c-115 0 -202 89 -202 205c0 117 89 207 204 207zM103 416c0 -90 69 -161 157 -161c87 0 156 71 156 161c0 91 -69 161 -156 161c-88 0 -157 -70 -157 -161z" />
    <glyph glyph-name="period.tab" horiz-adv-x="260" 
d="M92 35c0 22 17 39 38 39s38 -17 38 -39c0 -21 -17 -38 -38 -38s-38 17 -38 38z" />
    <glyph glyph-name="comma.tab" horiz-adv-x="260" 
d="M69 -101l54 100c-17 3 -31 15 -31 36c0 22 17 38 38 38s38 -16 38 -40c0 -16 -7 -30 -15 -44l-49 -90h-35z" />
    <glyph glyph-name="colon.tab" horiz-adv-x="260" 
d="M93 35c0 22 17 39 37 39c21 0 38 -17 38 -39c0 -21 -17 -38 -38 -38c-20 0 -37 17 -37 38zM93 364c0 22 17 39 37 39c21 0 38 -17 38 -39c0 -21 -17 -38 -38 -38c-20 0 -37 17 -37 38z" />
    <glyph glyph-name="semicolon.tab" horiz-adv-x="260" 
d="M69 -101l54 100c-16 3 -30 15 -30 36c0 22 16 38 37 38c22 0 38 -16 38 -40c0 -16 -7 -30 -15 -44l-48 -90h-36zM93 364c0 22 17 39 37 39c21 0 38 -17 38 -39c0 -21 -17 -38 -38 -38c-20 0 -37 17 -37 38z" />
    <glyph glyph-name="space.tab" horiz-adv-x="260" 
 />
    <glyph glyph-name="uni2153" unicode="&#x2153;" horiz-adv-x="665" 
d="M539 614l-417 -614h-45l417 614h45zM177 615v-330h-44v279l-86 -44v45l102 50h28zM408 291v39h200v-2l-85 -130c49 -7 87 -43 87 -97c0 -65 -51 -106 -112 -106c-42 0 -70 11 -91 27v46c24 -23 55 -35 87 -35c43 0 75 25 75 67c0 49 -45 75 -103 71v2l79 118h-137z" />
    <glyph glyph-name="uni2154" unicode="&#x2154;" horiz-adv-x="719" 
d="M593 614l-417 -614h-46l417 614h46zM123 324h139v-39h-215v2l103 126c33 41 60 70 60 110c0 33 -22 57 -62 57c-36 0 -71 -23 -93 -46v45c22 23 58 41 99 41c62 0 99 -37 99 -93c0 -47 -31 -84 -67 -129zM462 291v39h200v-2l-85 -130c49 -7 87 -43 87 -97
c0 -65 -51 -106 -113 -106c-41 0 -69 11 -91 27v46c25 -23 55 -35 88 -35c43 0 74 25 74 67c0 49 -44 75 -102 71v2l78 118h-136z" />
    <glyph glyph-name="uni215B" unicode="&#x215b;" horiz-adv-x="660" 
d="M539 614l-417 -614h-45l417 614h45zM494 31c42 0 72 27 72 62c0 36 -30 63 -72 63c-43 0 -72 -27 -72 -63c0 -35 29 -62 72 -62zM494 192c35 0 61 23 61 54s-26 54 -61 54c-36 0 -62 -23 -62 -54s26 -54 62 -54zM494 -5c-65 0 -115 39 -115 96c0 41 27 72 64 82
c-31 12 -51 40 -51 74c0 53 44 88 102 88c57 0 102 -35 102 -88c0 -34 -21 -62 -52 -74c37 -10 64 -41 64 -82c0 -57 -49 -96 -114 -96zM177 615v-330h-44v279l-86 -44v45l102 50h28z" />
    <glyph glyph-name="uni215C" unicode="&#x215c;" horiz-adv-x="687" 
d="M521 31c42 0 72 27 72 62c0 36 -30 63 -72 63c-43 0 -72 -27 -72 -63c0 -35 29 -62 72 -62zM521 192c35 0 61 23 61 54s-26 54 -61 54c-36 0 -62 -23 -62 -54s26 -54 62 -54zM521 -5c-66 0 -115 39 -115 96c0 41 27 72 64 82c-31 12 -52 40 -52 74c0 53 45 88 103 88
c57 0 102 -35 102 -88c0 -34 -21 -62 -52 -74c37 -10 64 -41 64 -82c0 -57 -50 -96 -114 -96zM566 614l-417 -614h-46l417 614h46zM53 575v39h200v-2l-85 -130c50 -7 88 -43 88 -97c0 -65 -51 -106 -113 -106c-42 0 -69 11 -91 27v46c25 -23 55 -35 88 -35c43 0 74 25 74 68
c0 48 -45 74 -102 70v2l78 118h-137z" />
    <glyph glyph-name="uni215D" unicode="&#x215d;" horiz-adv-x="689" 
d="M522 31c42 0 72 27 72 62c0 36 -30 63 -72 63s-71 -27 -71 -63c0 -35 29 -62 71 -62zM522 192c36 0 61 23 61 54s-25 54 -61 54c-35 0 -61 -23 -61 -54s26 -54 61 -54zM522 -5c-65 0 -114 39 -114 96c0 41 27 72 63 82c-30 12 -51 40 -51 74c0 53 44 88 102 88
s102 -35 102 -88c0 -34 -21 -62 -51 -74c36 -10 63 -41 63 -82c0 -57 -49 -96 -114 -96zM568 614l-417 -614h-46l417 614h46zM144 491c64 0 115 -39 115 -105c0 -65 -52 -106 -117 -106c-39 0 -67 11 -89 27v45c24 -22 54 -34 86 -34c43 0 79 25 79 68c0 42 -36 68 -80 68
c-30 0 -50 -6 -70 -15v176h173v-40h-137v-89c10 3 24 5 40 5z" />
    <glyph glyph-name="uni215E" unicode="&#x215e;" horiz-adv-x="641" 
d="M475 31c42 0 72 27 72 62c0 36 -30 63 -72 63s-72 -27 -72 -63c0 -35 30 -62 72 -62zM475 192c35 0 61 23 61 54s-26 54 -61 54c-36 0 -62 -23 -62 -54s26 -54 62 -54zM475 -5c-65 0 -115 39 -115 96c0 41 28 72 64 82c-31 12 -51 40 -51 74c0 53 44 88 102 88
c57 0 102 -35 102 -88c0 -34 -21 -62 -52 -74c37 -10 64 -41 64 -82c0 -57 -49 -96 -114 -96zM521 614l-418 -614h-45l417 614h46zM272 612l-150 -328h-45l133 291h-164v39h226v-2z" />
    <glyph glyph-name="percent.lt" horiz-adv-x="520" 
d="M19 500c0 68 54 123 121 123c68 0 123 -55 123 -123s-55 -122 -123 -122c-67 0 -121 54 -121 122zM57 500c0 -46 37 -83 83 -83c47 0 85 37 85 83c0 47 -38 84 -85 84c-46 0 -83 -37 -83 -84zM502 114c0 -68 -54 -123 -122 -123s-122 55 -122 123s54 122 122 122
s122 -54 122 -122zM464 114c0 46 -37 83 -84 83s-84 -37 -84 -83c0 -47 37 -84 84 -84s84 37 84 84zM40 0l398 614h43l-398 -614h-43z" />
    <glyph glyph-name="perthousand.lt" horiz-adv-x="800" 
d="M20 500c0 68 54 123 122 123s123 -55 123 -123s-55 -122 -123 -122s-122 54 -122 122zM59 500c0 -46 37 -83 83 -83c47 0 84 37 84 83c0 47 -37 84 -84 84c-46 0 -83 -37 -83 -84zM504 114c0 -68 -54 -123 -122 -123s-123 55 -123 123s55 122 123 122s122 -54 122 -122z
M465 114c0 46 -37 83 -83 83c-47 0 -84 -37 -84 -83c0 -47 37 -84 84 -84c46 0 83 37 83 84zM41 0l398 614h44l-398 -614h-44zM780 114c0 -68 -54 -123 -121 -123c-68 0 -123 55 -123 123s55 122 123 122c67 0 121 -54 121 -122zM742 114c0 46 -37 83 -83 83
c-47 0 -85 -37 -85 -83c0 -47 38 -84 85 -84c46 0 83 37 83 84z" />
    <glyph glyph-name="plus.lt" horiz-adv-x="520" 
d="M238 480h43v-164h165v-43h-165v-164h-43v164h-164v43h164v164z" />
    <glyph glyph-name="minus.lt" horiz-adv-x="520" 
d="M74 273v43h372v-43h-372z" />
    <glyph glyph-name="multiply.lt" horiz-adv-x="520" 
d="M231 292l-121 122l29 29l121 -122l120 122l30 -29l-121 -122l121 -122l-30 -29l-120 121l-121 -121l-29 29z" />
    <glyph glyph-name="divide.lt" horiz-adv-x="520" 
d="M74 273v43h372v-43h-372zM223 447c0 21 17 38 36 38c20 0 37 -17 37 -38c0 -20 -17 -36 -37 -36c-19 0 -36 16 -36 36zM223 142c0 20 17 37 36 37c20 0 37 -17 37 -37c0 -21 -17 -37 -37 -37c-19 0 -36 16 -36 37z" />
    <glyph glyph-name="equal.lt" horiz-adv-x="520" 
d="M74 210v42h372v-42h-372zM74 338v42h372v-42h-372z" />
    <glyph glyph-name="less.lt" horiz-adv-x="520" 
d="M122 269v47l275 150v-48l-232 -125l232 -125v-49z" />
    <glyph glyph-name="greater.lt" horiz-adv-x="520" 
d="M397 316v-47l-275 -150v49l232 125l-232 125v48z" />
    <glyph glyph-name="plusminus.lt" horiz-adv-x="520" 
d="M238 495h43v-126h163v-42h-163v-126h-43v126h-163v42h163v126zM75 104v43h369v-43h-369z" />
    <glyph glyph-name="lessequal.lt" horiz-adv-x="520" 
d="M122 308v46l275 115v-46l-224 -92l224 -92v-46zM122 111v43h275v-43h-275z" />
    <glyph glyph-name="greaterequal.lt" horiz-adv-x="520" 
d="M397 354v-46l-275 -115v46l224 92l-224 92v46zM397 154v-43h-275v43h275z" />
    <glyph glyph-name="notequal.lt" horiz-adv-x="520" 
d="M74 338v41h228l69 89h45l-69 -89h99v-41h-131l-66 -86h197v-41h-229l-69 -90h-45l69 90h-98v41h130l66 86h-196z" />
    <glyph glyph-name="approxequal.lt" horiz-adv-x="520" 
d="M74 304v46c35 32 69 45 99 45c65 0 109 -47 170 -47c31 0 66 14 103 48v-46c-37 -33 -72 -45 -103 -45c-63 0 -108 47 -170 47c-30 0 -64 -15 -99 -48zM74 195v45c35 33 69 46 99 46c65 0 109 -48 170 -48c31 0 66 14 103 49v-46c-37 -34 -72 -45 -103 -45
c-63 0 -108 47 -170 47c-30 0 -64 -15 -99 -48z" />
    </font>
</defs>
</svg>
